<?xml version="1.0" standalone="no"?>
<!DOCTYPE svg PUBLIC "-//W3C//DTD SVG 20010904//EN"
 "http://www.w3.org/TR/2001/REC-SVG-20010904/DTD/svg10.dtd">
<svg version="1.0" xmlns="http://www.w3.org/2000/svg"
 width="1024.000000pt" height="1024.000000pt" viewBox="0 0 1024.000000 1024.000000"
 preserveAspectRatio="xMidYMid meet">

<g transform="translate(0.000000,1024.000000) scale(0.100000,-0.100000)"
fill="#000000" stroke="none">
<path d="M4226 9205 c28 -89 31 -135 9 -135 -9 0 -18 7 -22 16 -3 9 -9 11 -12
6 -3 -5 -24 -14 -46 -20 l-40 -11 43 5 c47 6 99 -17 86 -38 -4 -7 -8 -32 -9
-57 -2 -53 -44 -142 -77 -165 -30 -21 -45 -20 -26 2 17 18 33 62 24 62 -18 0
-47 -44 -44 -67 2 -15 -3 -28 -9 -30 -9 -3 -13 7 -13 34 0 21 -9 53 -20 71
-11 18 -20 35 -20 38 0 12 23 -10 41 -40 10 -17 19 -27 19 -23 0 13 -33 67
-42 68 -4 1 -14 2 -20 3 -38 4 -1 107 45 126 16 6 18 9 5 9 -16 1 -16 4 2 47
24 56 27 82 6 65 -8 -7 -12 -21 -9 -31 4 -14 0 -20 -11 -20 -10 0 -16 -9 -16
-24 0 -14 -5 -28 -11 -31 -5 -4 -15 -18 -20 -32 -7 -20 -12 -23 -23 -14 -12
10 -16 6 -22 -21 -4 -18 -7 -36 -6 -40 1 -3 -5 -9 -13 -12 -10 -3 -15 1 -15
13 0 22 -28 91 -36 91 -4 0 -4 -17 -1 -37 5 -31 4 -35 -8 -22 -7 8 -18 30 -22
49 -7 26 -20 42 -54 62 -24 14 -55 29 -69 32 l-25 7 25 -18 c59 -42 93 -79
116 -126 26 -49 27 -70 4 -42 -7 8 -19 15 -28 15 -8 0 -24 8 -35 18 -20 17
-20 17 -1 -17 10 -18 29 -37 40 -41 26 -10 34 -30 34 -78 -1 -45 -14 -27 -25
33 -7 37 -8 38 -18 17 -7 -16 -7 -29 3 -46 7 -14 10 -32 6 -42 -6 -16 -8 -15
-27 2 -11 10 -17 24 -15 31 4 8 -2 13 -16 13 -20 0 -20 -1 -5 -18 25 -27 21
-32 -13 -20 -17 5 -41 7 -54 4 -14 -3 -28 -1 -34 7 -17 20 -41 98 -48 154 -10
79 -28 54 -20 -26 4 -36 7 -74 7 -83 0 -10 5 -18 10 -18 6 0 8 -4 5 -9 -3 -5
1 -14 10 -22 8 -7 20 -21 25 -31 10 -19 9 -19 -23 -2 -18 9 -46 18 -62 20
l-30 2 25 -19 c13 -10 40 -25 60 -34 22 -10 39 -27 46 -46 l11 -30 -36 7 c-89
15 -212 90 -263 158 -33 46 -39 37 -9 -12 30 -49 105 -118 150 -139 22 -10 38
-23 35 -30 -2 -7 7 -21 20 -32 14 -10 25 -24 25 -30 0 -6 13 -11 29 -11 38 0
64 -25 52 -48 -12 -23 -40 -46 -76 -65 l-30 -15 50 4 50 4 -37 -14 c-20 -8
-58 -18 -83 -21 -90 -14 -26 -42 68 -30 l54 7 7 -72 7 -71 32 7 c48 12 100 10
104 -3 3 -7 -18 -16 -51 -24 -31 -7 -56 -16 -56 -21 0 -5 14 -36 31 -69 l30
-61 67 7 c77 8 169 28 198 42 10 6 55 13 99 17 87 7 310 61 390 94 28 12 46
21 41 21 -5 1 0 11 11 24 27 30 83 125 83 140 0 15 -98 117 -112 117 -16 0 1
52 27 80 l23 25 -20 42 c-21 44 -80 83 -126 83 -27 0 -27 1 -2 47 21 39 27 89
10 78 -5 -3 -10 -12 -10 -20 0 -33 -91 -145 -118 -144 -21 1 -62 17 -44 18 16
1 92 78 92 94 -1 6 -9 2 -19 -10 -25 -30 -90 -73 -111 -73 -22 0 -35 29 -16
36 11 4 14 24 11 87 -1 45 -4 89 -6 97 -3 10 8 17 36 21 l40 6 -40 2 -41 1
-12 70 c-10 59 -53 170 -66 170 -2 0 7 -34 20 -75z m-226 -370 l0 -95 -26 0
c-24 0 -25 2 -18 28 5 15 9 54 10 87 2 77 1 75 19 75 12 0 15 -17 15 -95z m54
44 c20 -23 26 -42 26 -75 0 -28 -4 -43 -10 -39 -5 3 -10 28 -10 55 0 27 -5 52
-10 55 -7 5 -9 -14 -4 -58 7 -67 -6 -95 -25 -58 -13 24 -15 151 -2 151 5 0 21
-14 35 -31z m-109 -97 c-3 -18 -10 -30 -16 -27 -13 8 -11 62 3 110 l13 40 3
-45 c2 -24 1 -59 -3 -78z m300 -28 c-39 -94 -119 -152 -191 -138 -42 8 -35 20
29 46 l42 18 -42 -6 c-40 -5 -43 -4 -43 18 1 17 14 31 48 52 55 34 153 68 165
56 5 -4 1 -25 -8 -46z m-371 10 c31 -14 56 -30 56 -35 0 -6 4 -8 9 -4 5 3 12
1 16 -5 3 -5 15 -10 26 -10 31 0 17 -24 -15 -28 -18 -2 -26 -8 -22 -17 13 -36
-115 -20 -163 21 -40 33 -68 93 -50 106 20 13 78 2 143 -28z m524 -142 c27
-42 62 -121 62 -141 0 -4 -14 -8 -31 -9 -31 -2 -32 -2 -26 33 3 19 2 33 -2 30
-5 -2 -16 17 -26 43 -10 26 -26 59 -36 73 -10 14 -16 29 -12 32 11 12 41 -13
71 -61z m-38 -74 c0 -16 -4 -27 -9 -23 -5 3 -16 -4 -24 -16 -10 -13 -17 -17
-22 -9 -4 6 3 20 16 31 20 17 21 23 11 57 l-11 37 19 -24 c11 -13 20 -36 20
-53z m-488 -63 c-2 -19 -6 -35 -8 -35 -2 0 -4 16 -4 35 0 19 4 35 8 35 4 0 6
-16 4 -35z m18 -64 c0 -10 7 -24 15 -31 8 -7 15 -21 15 -32 0 -17 2 -18 15 -8
22 19 26 8 5 -13 -18 -18 -19 -17 -44 26 -27 45 -33 77 -16 77 6 0 10 -8 10
-19z"/>
<path d="M3892 9153 c1 -49 2 -51 15 -27 11 22 10 30 -1 52 -14 26 -15 26 -14
-25z"/>
<path d="M3939 9183 c-13 -16 -12 -17 4 -4 16 13 21 21 13 21 -2 0 -10 -8 -17
-17z"/>
<path d="M8470 9163 c0 -32 12 -83 19 -83 9 0 1 83 -10 95 -5 5 -9 1 -9 -12z"/>
<path d="M8750 9058 c-9 -51 -177 -488 -192 -504 -2 -2 -12 74 -22 168 -9 95
-22 179 -27 188 -7 11 -8 9 -4 -10 2 -14 9 -86 15 -160 6 -74 13 -154 16 -177
7 -53 -7 -56 -25 -5 -22 62 -159 288 -244 400 -94 127 -95 127 -103 120 -3 -4
25 -46 62 -95 124 -161 299 -462 280 -481 -4 -3 -28 14 -54 39 -144 137 -455
370 -493 369 -17 -1 41 -50 59 -50 6 0 12 -4 12 -9 0 -4 17 -20 38 -34 123
-84 180 -127 289 -219 68 -56 121 -103 119 -106 -6 -6 -175 44 -232 69 -142
61 -376 113 -439 98 -10 -2 88 -18 138 -22 15 -1 27 -6 27 -11 0 -4 9 -6 20
-3 11 3 20 1 20 -4 0 -5 8 -9 18 -9 10 0 79 -21 153 -46 73 -25 170 -56 213
-68 44 -13 81 -27 83 -33 4 -12 -108 -39 -218 -53 -41 -5 -114 -16 -164 -24
-117 -20 -227 -21 -265 -1 -38 20 -38 11 5 -55 19 -30 35 -61 35 -67 0 -7 4
-13 10 -13 5 0 23 -28 40 -62 17 -35 58 -90 90 -124 l60 -62 21 37 c36 60 108
129 224 216 61 45 130 98 153 118 24 21 47 37 52 37 4 0 16 -29 25 -65 24 -86
16 -318 -15 -445 -28 -116 -70 -231 -88 -237 -30 -12 -152 37 -262 105 l-25
16 26 -30 c15 -16 38 -52 52 -79 14 -28 39 -68 57 -90 17 -22 50 -69 73 -105
32 -48 56 -72 97 -96 92 -54 148 -67 264 -62 92 4 107 8 176 43 41 20 107 57
146 80 39 24 89 48 110 54 43 11 260 31 358 32 43 0 55 3 41 9 -13 6 -15 9 -5
9 12 1 13 3 1 10 -11 7 -9 13 9 31 12 12 19 28 16 35 -3 8 -1 17 5 20 5 4 7
10 4 15 -3 4 2 11 11 14 13 5 15 2 11 -14 -3 -11 -1 -20 4 -20 5 0 9 -10 9
-22 0 -19 -2 -20 -10 -8 -7 11 -9 5 -8 -22 1 -21 2 -38 4 -38 1 0 19 41 39 92
43 108 66 228 58 298 l-6 50 -48 0 -48 0 11 31 c18 53 5 177 -26 237 -21 41
-29 76 -36 155 -18 199 -100 385 -229 521 -47 49 -168 146 -182 146 -5 0 -78
-78 -163 -172 -155 -174 -416 -439 -416 -423 0 17 64 183 116 303 30 67 56
130 58 140 1 9 6 24 9 32 10 26 30 151 25 156 -3 2 -11 -24 -18 -58z m459 -35
c111 -91 181 -180 247 -314 19 -37 34 -70 34 -72 0 -2 -83 -7 -184 -10 -220
-7 -330 -27 -536 -98 -80 -27 -154 -52 -165 -56 -11 -3 36 52 105 123 69 71
197 204 284 297 87 92 160 167 163 167 3 0 27 -17 52 -37z m281 -433 c23 -13
40 -88 40 -183 0 -85 -28 -237 -44 -237 -6 0 -36 14 -66 31 -65 36 -226 110
-328 150 -116 46 -266 80 -380 86 -92 5 -103 8 -86 20 39 28 324 109 484 136
52 9 362 7 380 -3z m-779 -170 c197 -20 419 -94 630 -209 106 -58 171 -103
127 -88 -13 4 -20 -3 -29 -31 -21 -65 -48 -110 -110 -182 -50 -59 -65 -70 -91
-70 -17 0 -28 3 -25 7 10 9 -13 33 -31 33 -14 0 -14 -2 0 -17 34 -39 31 -58
-12 -87 -22 -14 -64 -37 -94 -50 -30 -13 -64 -34 -75 -45 -12 -12 -26 -19 -31
-16 -5 3 -20 -1 -32 -8 -30 -19 -157 -37 -257 -37 -68 0 -185 15 -202 26 -4 2
7 38 23 81 16 42 38 121 49 175 24 123 35 335 21 408 -6 30 -8 57 -6 59 11 12
99 -155 154 -295 26 -64 75 -225 86 -278 8 -44 16 -26 9 24 -16 132 -160 479
-229 553 -14 15 -26 32 -26 37 0 5 35 -7 77 -26 91 -42 199 -127 257 -202 50
-66 94 -112 125 -132 13 -8 36 -24 50 -35 64 -50 61 -45 -19 35 -47 47 -117
118 -155 159 -90 96 -155 147 -232 183 -35 15 -63 30 -63 33 0 6 -10 7 111 -5z
m854 -259 c-4 -17 -11 -33 -16 -36 -5 -4 -7 0 -5 7 3 7 7 26 11 42 3 15 8 26
11 23 3 -3 3 -19 -1 -36z m-38 -116 c-6 -19 -12 -33 -14 -32 -6 7 9 67 17 67
5 0 3 -16 -3 -35z m163 -171 c0 -14 -17 -54 -37 -89 -37 -63 -63 -83 -63 -47
0 20 81 162 93 162 4 0 7 -12 7 -26z m-40 -174 c-8 -15 -15 -19 -22 -12 -7 7
-6 17 2 32 8 15 15 19 22 12 7 -7 6 -17 -2 -32z"/>
<path d="M9190 8755 c-20 -24 -5 -28 21 -6 19 16 20 20 8 21 -9 0 -22 -7 -29
-15z"/>
<path d="M8960 8215 c13 -14 28 -25 33 -25 6 0 0 11 -13 25 -13 14 -28 25 -33
25 -6 0 0 -11 13 -25z"/>
<path d="M9370 8131 c0 -5 -3 -17 -7 -27 -4 -11 -3 -15 4 -11 14 9 24 47 12
47 -5 0 -9 -4 -9 -9z"/>
<path d="M9119 7943 c32 -42 61 -56 61 -29 0 7 -7 20 -17 27 -15 13 -15 12 -3
-11 10 -20 4 -17 -31 15 l-43 40 33 -42z"/>
<path d="M8888 7735 c2 -44 5 -81 6 -82 1 -1 8 4 17 11 15 11 15 17 -6 81
l-22 70 5 -80z"/>
<path d="M4449 9004 c25 -10 46 -24 48 -35 6 -22 23 -25 23 -4 0 20 -38 44
-81 50 -31 5 -31 4 10 -11z"/>
<path d="M6540 8809 c0 -37 4 -58 10 -54 6 3 10 31 10 61 0 30 -4 54 -10 54
-6 0 -10 -27 -10 -61z"/>
<path d="M8770 8855 c-20 -24 -6 -28 15 -5 10 11 13 20 8 20 -6 0 -16 -7 -23
-15z"/>
<path d="M6190 8851 c0 -5 5 -13 10 -16 6 -3 10 -2 10 4 0 5 -4 13 -10 16 -5
3 -10 2 -10 -4z"/>
<path d="M2132 8790 c0 -14 2 -19 5 -12 2 6 2 18 0 25 -3 6 -5 1 -5 -13z"/>
<path d="M2236 8733 c29 -70 30 -122 5 -201 -29 -96 -94 -173 -176 -213 -46
-21 -147 -25 -209 -8 l-39 11 5 66 c3 39 2 59 -3 47 -4 -11 -8 -39 -8 -62 -1
-24 -4 -43 -9 -43 -10 0 -80 47 -111 74 -28 25 -24 15 40 -80 64 -96 151 -155
269 -185 73 -19 94 -20 150 -12 66 11 168 51 188 75 14 18 39 119 46 194 9 80
-7 147 -50 214 l-35 55 8 -70 c12 -112 9 -148 -21 -210 -15 -31 -29 -55 -31
-53 -3 3 2 18 10 35 51 103 27 358 -40 413 -8 6 -4 -12 11 -47z"/>
<path d="M6795 8648 c-58 -98 -308 -483 -340 -523 -14 -19 -15 -18 -9 20 6 39
19 107 69 345 13 63 24 126 24 140 -1 15 -5 7 -11 -20 -5 -25 -29 -135 -53
-245 -24 -110 -47 -216 -51 -235 l-7 -35 -29 60 c-27 57 -32 47 -12 -23 6 -22
5 -23 -15 -10 -12 7 -56 52 -97 100 -42 48 -84 93 -93 100 -22 18 51 -73 127
-157 34 -38 59 -71 54 -73 -4 -1 -53 11 -107 28 -119 37 -267 67 -395 80 -121
12 -317 13 -325 1 -3 -6 16 -7 47 -4 60 6 340 -20 458 -43 71 -13 313 -76 350
-90 9 -4 -7 -12 -38 -20 -158 -41 -454 -217 -609 -362 -74 -69 -47 -66 35 4
110 95 340 243 459 298 105 47 163 62 113 28 -57 -39 -112 -99 -171 -185 -34
-51 -72 -103 -83 -116 l-21 -24 23 14 c13 8 49 52 80 99 31 47 75 104 98 127
47 46 122 99 130 91 3 -3 -4 -21 -15 -39 -30 -49 -26 -57 10 -20 17 18 33 30
36 28 3 -3 9 -24 14 -47 5 -22 27 -82 49 -133 48 -113 93 -266 88 -304 -2 -21
-16 -36 -53 -60 -90 -59 -218 -89 -339 -79 -116 9 -183 28 -287 81 -155 78
-273 184 -344 307 -22 37 -41 66 -43 63 -12 -12 87 -171 148 -238 43 -46 73
-87 76 -106 16 -80 143 -167 312 -213 81 -22 270 -31 342 -16 28 6 31 5 16 -3
-36 -21 -181 -37 -268 -28 -91 8 -160 29 -256 78 -34 17 -62 29 -62 25 0 -3
13 -25 30 -49 51 -74 106 -113 205 -145 64 -21 78 -28 48 -25 -23 3 -50 7 -60
10 -10 3 -4 -1 12 -9 64 -32 162 -17 343 50 97 36 334 161 371 196 11 10 24
18 30 18 5 0 80 35 167 78 151 73 163 77 237 81 86 4 120 -7 212 -65 28 -17
62 -37 75 -44 24 -13 25 -12 7 7 -9 11 -14 23 -11 26 4 4 2 13 -5 21 -9 11 -9
17 2 27 22 23 27 46 17 80 -12 42 3 63 39 54 l26 -6 -25 21 c-14 11 -43 34
-65 49 -22 16 -62 50 -90 75 -27 25 -57 48 -65 51 -8 3 -21 14 -27 25 -21 32
12 15 117 -64 52 -40 109 -81 125 -93 l30 -21 0 73 c0 46 -5 78 -14 88 -7 9
-51 42 -98 74 -46 32 -80 59 -74 61 5 2 19 -2 30 -8 16 -8 20 -8 16 2 -2 7
-16 63 -30 123 -27 116 -57 185 -109 250 -18 22 -54 79 -81 128 -27 48 -71
111 -97 140 l-49 52 44 -57 c52 -65 127 -210 127 -243 0 -14 -7 -25 -17 -28
-14 -4 -14 -5 3 -6 28 -1 34 -24 34 -135 l0 -88 -27 7 c-117 30 -419 73 -430
61 -3 -2 17 -7 44 -11 209 -25 314 -44 390 -70 13 -4 -4 -57 -45 -135 l-23
-45 25 30 c14 17 26 26 26 21 0 -21 -64 -107 -103 -138 -124 -100 -158 -95
-319 44 -98 85 -185 146 -238 168 -23 9 -28 15 -18 21 9 6 6 9 -9 9 -40 0 -25
18 42 51 36 17 63 34 60 37 -3 3 -38 -11 -79 -31 -40 -21 -77 -37 -82 -37 -16
0 62 73 114 106 28 19 52 36 52 39 0 14 -88 -45 -150 -99 -19 -17 -29 -24 -24
-16 92 130 414 631 414 644 0 21 -22 -7 -75 -96z m-15 -1149 c0 -38 -36 -16
-50 29 l-9 32 30 -20 c16 -12 29 -30 29 -41z"/>
<path d="M1681 8736 c2 -2 24 -6 49 -9 30 -4 38 -3 25 3 -19 8 -83 14 -74 6z"/>
<path d="M6542 8710 c0 -19 2 -27 5 -17 2 9 2 25 0 35 -3 9 -5 1 -5 -18z"/>
<path d="M1940 8650 c0 -46 -2 -51 -27 -61 -46 -16 -93 -43 -110 -61 -26 -28
-1 -20 37 12 45 39 74 41 38 3 -25 -28 -48 -65 -48 -79 0 -4 14 14 30 40 20
31 36 46 45 42 8 -3 21 4 29 16 11 16 22 19 43 15 16 -3 35 -2 43 4 12 7 9 9
-10 9 -23 0 -20 5 30 51 l55 50 -52 -37 c-29 -20 -55 -40 -59 -45 -13 -22 -24
-5 -24 41 0 28 -4 50 -10 50 -5 0 -10 -23 -10 -50z"/>
<path d="M5780 8650 c-8 -5 -11 -13 -6 -17 5 -4 11 -3 13 4 3 7 32 -8 76 -40
40 -29 74 -54 77 -57 3 -3 21 -18 40 -35 l35 -30 -35 39 c-19 21 -60 55 -90
76 -31 21 -62 45 -69 54 -15 18 -20 19 -41 6z"/>
<path d="M1886 8637 c2 -7 14 -19 27 -26 21 -13 21 -12 -2 13 -27 29 -33 32
-25 13z"/>
<path d="M3568 8597 c-3 -19 -2 -25 4 -19 6 6 8 18 6 28 -3 14 -5 12 -10 -9z"/>
<path d="M1874 8484 c-8 -19 -17 -49 -20 -67 -2 -18 4 -7 14 24 10 31 22 61
26 67 4 7 4 12 1 12 -3 0 -13 -16 -21 -36z"/>
<path d="M6045 8450 c10 -11 20 -20 23 -20 3 0 -3 9 -13 20 -10 11 -20 20 -23
20 -3 0 3 -9 13 -20z"/>
<path d="M6080 8417 c0 -2 15 -16 33 -33 l32 -29 -29 33 c-28 30 -36 37 -36
29z"/>
<path d="M7140 8300 c-20 -6 -21 -8 -5 -8 11 0 29 3 40 8 25 11 -1 11 -35 0z"/>
<path d="M4564 8226 c-34 -12 -104 -34 -155 -49 -102 -29 -472 -97 -526 -97
-40 0 -41 -5 -7 -37 39 -36 66 -43 169 -43 81 0 102 -4 163 -30 85 -36 181
-60 243 -60 l47 0 46 73 c25 39 52 86 58 104 8 22 19 33 40 37 20 4 28 11 28
27 0 35 -22 99 -34 98 -6 0 -39 -10 -72 -23z m-198 -176 c16 -5 48 -14 72 -20
23 -6 42 -16 42 -22 0 -7 -15 -9 -42 -5 -79 11 -188 39 -188 48 0 12 79 12
116 -1z"/>
<path d="M6345 8230 c3 -5 8 -10 11 -10 2 0 4 5 4 10 0 6 -5 10 -11 10 -5 0
-7 -4 -4 -10z"/>
<path d="M6908 8223 c7 -3 16 -2 19 1 4 3 -2 6 -13 5 -11 0 -14 -3 -6 -6z"/>
<path d="M6795 8200 c-27 -7 -27 -8 -5 -8 14 0 36 4 50 8 20 6 21 8 5 8 -11 0
-33 -4 -50 -8z"/>
<path d="M6723 8183 c9 -2 23 -2 30 0 6 3 -1 5 -18 5 -16 0 -22 -2 -12 -5z"/>
<path d="M1883 8116 c89 -84 239 -107 350 -53 58 29 111 76 72 64 -11 -3 -38
-13 -60 -21 -63 -24 -195 -20 -286 8 -41 13 -86 29 -100 35 -15 8 -6 -5 24
-33z"/>
<path d="M9682 8070 c0 -14 2 -19 5 -12 2 6 2 18 0 25 -3 6 -5 1 -5 -13z"/>
<path d="M6638 8033 c7 -3 16 -2 19 1 4 3 -2 6 -13 5 -11 0 -14 -3 -6 -6z"/>
<path d="M6685 8020 c3 -5 18 -10 33 -9 24 0 25 1 7 9 -28 12 -47 12 -40 0z"/>
<path d="M3632 7826 c-56 -92 -73 -150 -83 -286 -4 -69 -11 -146 -14 -172 -8
-68 9 -63 91 30 101 112 196 232 184 232 -5 0 -10 13 -10 29 0 16 -4 31 -8 33
-4 2 -22 35 -41 73 -30 64 -66 115 -81 115 -3 0 -20 -24 -38 -54z"/>
<path d="M5491 7864 c0 -11 3 -14 6 -6 3 7 2 16 -1 19 -3 4 -6 -2 -5 -13z"/>
<path d="M3000 7760 c0 -5 5 -10 11 -10 5 0 7 5 4 10 -3 6 -8 10 -11 10 -2 0
-4 -4 -4 -10z"/>
<path d="M3234 7540 c67 -76 110 -115 189 -173 37 -27 66 -51 64 -53 -2 -3
-33 3 -68 11 -82 20 -330 30 -384 16 -34 -9 -27 -10 49 -6 109 5 267 -10 361
-34 l70 -19 -45 -18 c-91 -37 -211 -103 -289 -159 -45 -32 -79 -60 -77 -62 2
-2 49 26 105 62 96 63 288 161 298 152 4 -5 -32 -72 -82 -152 -63 -100 -141
-264 -166 -349 -14 -48 5 -16 36 59 41 100 98 214 144 285 22 34 50 84 62 111
13 27 26 49 30 49 15 0 29 -75 31 -167 1 -39 6 -69 10 -67 5 3 5 17 2 32 -4
22 -3 24 6 12 9 -12 10 -1 5 44 -4 33 -11 71 -16 84 -5 14 -8 27 -5 29 6 7 80
-95 105 -144 12 -24 24 -43 26 -43 10 0 -64 136 -94 174 -34 43 -38 56 -17 56
31 0 254 -31 321 -45 75 -15 97 -13 43 4 -44 14 -267 51 -307 51 -58 0 -32 17
69 45 55 16 98 30 96 32 -2 2 -47 -8 -101 -22 -114 -29 -122 -30 -105 -10 19
23 -1 18 -27 -7 l-22 -21 -38 27 c-114 80 -153 111 -198 154 -27 27 -68 64
-90 83 -39 32 -38 32 9 -21z"/>
<path d="M4306 7518 c24 -46 64 -204 64 -251 0 -65 -38 -178 -62 -185 -14 -3
-16 -7 -7 -12 23 -15 -23 -98 -98 -178 -29 -30 -10 -23 24 9 34 32 35 32 14 4
-35 -46 -112 -108 -198 -158 -206 -120 -485 -148 -755 -76 -29 7 -38 15 -39
32 -1 17 -2 18 -6 5 -6 -26 -21 -23 -109 21 -190 96 -338 276 -374 456 -5 27
-8 32 -9 15 -2 -46 38 -161 90 -258 59 -112 105 -172 163 -213 23 -16 50 -46
61 -66 46 -83 122 -114 375 -152 77 -11 118 -21 108 -26 -15 -6 -135 2 -328
22 l-45 5 24 -25 c82 -89 377 -126 576 -73 174 47 238 81 417 220 l63 48 -46
-43 c-74 -71 -128 -117 -132 -112 -2 2 -10 -3 -17 -12 -7 -8 -17 -15 -22 -15
-9 0 -61 -35 -84 -56 -16 -14 -96 -46 -199 -78 -46 -15 -64 -24 -42 -21 20 3
54 7 75 10 20 3 6 -4 -31 -14 -75 -21 -100 -35 -46 -25 147 26 286 82 475 191
77 44 176 99 221 122 77 40 82 45 103 96 12 30 19 59 15 64 -3 6 -3 11 2 11 4
0 9 27 11 60 1 33 -1 60 -5 60 -11 0 -85 -50 -96 -64 -5 -7 -6 -4 -3 7 3 10 6
22 6 27 0 5 25 24 55 42 66 40 66 44 23 176 -38 118 -64 159 -97 154 -13 -2
-21 0 -17 6 8 13 -56 202 -84 247 -27 44 -36 46 -14 3z m-13 -813 c-3 -9 -8
-14 -10 -11 -3 3 -2 9 2 15 9 16 15 13 8 -4z m-373 -309 c0 -2 -7 -7 -16 -10
-8 -3 -12 -2 -9 4 6 10 25 14 25 6z"/>
<path d="M7135 7473 c-11 -3 -76 -32 -145 -65 -96 -45 -121 -61 -109 -68 9 -5
27 -7 40 -4 87 19 100 18 124 -12 20 -25 25 -27 39 -15 15 13 20 10 45 -20 27
-32 28 -33 35 -11 8 25 26 30 26 8 0 -13 58 -66 72 -66 3 0 10 17 17 38 12 40
56 100 66 90 4 -3 -1 -27 -9 -52 -9 -26 -16 -49 -16 -52 0 -10 93 96 111 126
l17 27 -52 31 c-28 17 -64 36 -79 41 -28 11 -144 13 -182 4z"/>
<path d="M9206 7469 c-60 -8 -87 -20 -210 -90 -78 -44 -152 -89 -165 -98 l-23
-18 76 -33 c42 -19 76 -36 76 -40 0 -3 42 -6 93 -5 50 0 103 -4 117 -8 24 -8
24 -7 6 7 -10 9 -23 13 -27 10 -5 -3 -9 0 -9 6 0 6 6 13 14 16 16 6 29 44 15
44 -5 0 -9 -6 -9 -13 0 -20 -60 -51 -73 -38 -7 7 -3 13 14 19 33 13 63 48 56
66 -6 15 22 46 41 46 7 0 12 -5 12 -11 0 -6 7 -8 16 -5 12 4 15 2 10 -9 -3 -8
-9 -21 -12 -29 -6 -15 33 -43 44 -32 3 3 0 6 -7 6 -7 0 -9 5 -6 10 4 6 10 8
14 6 9 -6 106 103 106 120 0 7 8 21 18 32 14 15 15 21 5 25 -7 2 -2 5 12 5 14
0 45 4 70 10 39 8 27 10 -80 10 -69 0 -156 -5 -194 -9z"/>
<path d="M3436 7432 c10 -19 32 -48 47 -65 20 -23 18 -17 -9 23 -46 67 -64 87
-38 42z"/>
<path d="M3511 7419 c0 -13 4 -33 9 -44 7 -14 8 -8 3 20 -7 46 -13 59 -12 24z"/>
<path d="M8512 7301 c25 -40 77 -58 151 -51 94 9 113 30 27 30 -38 1 -88 9
-120 20 -69 24 -73 24 -58 1z"/>
<path d="M6719 7271 c-124 -78 -390 -197 -517 -231 -56 -14 -73 -30 -34 -30 7
0 50 -30 95 -66 45 -36 87 -68 94 -71 15 -6 414 173 429 192 6 8 14 12 17 8 4
-3 7 0 8 8 0 8 2 23 4 33 2 11 1 25 -3 30 -3 6 -5 21 -4 33 2 11 -2 24 -7 28
-6 3 -11 26 -11 51 0 53 -8 54 -71 15z m-109 -158 c-1 -15 -76 -56 -102 -56
-15 0 -26 -5 -25 -11 1 -6 -11 -11 -26 -11 l-28 -1 23 18 c33 26 78 49 113 58
41 11 45 11 45 3z m-173 -109 c1 -5 -11 -17 -27 -26 -38 -21 -53 -3 -20 24 23
19 41 20 47 2z"/>
<path d="M3633 7227 c21 -12 75 -44 121 -70 46 -27 124 -80 172 -119 l89 -70
-64 62 c-71 69 -158 128 -268 184 -80 40 -109 48 -50 13z"/>
<path d="M9263 7225 c-11 -8 -23 -11 -27 -8 -3 3 -6 -1 -6 -9 0 -9 -6 -19 -12
-21 -7 -3 -2 -6 12 -6 16 0 32 9 43 25 23 31 18 39 -10 19z"/>
<path d="M9215 7087 c-12 -62 -163 -212 -183 -181 -8 12 -128 94 -138 94 -3 0
21 -20 55 -45 66 -49 75 -65 36 -65 -14 0 -25 -5 -25 -11 0 -6 9 -8 23 -3 30
10 61 7 65 -6 5 -15 22 -12 22 5 0 8 5 15 10 15 6 0 10 5 10 10 0 6 32 40 70
77 72 68 89 98 72 129 -9 16 -11 13 -17 -19z"/>
<path d="M9307 7050 c25 -48 28 -65 28 -152 0 -118 -12 -136 -58 -85 l-29 32
21 -32 c27 -40 26 -55 -4 -91 -29 -35 -33 -51 -7 -31 10 8 0 -3 -22 -23 -23
-21 -44 -38 -47 -38 -3 0 -10 10 -16 23 -30 69 -95 197 -99 197 -3 0 -3 -3 -1
-7 15 -27 66 -142 72 -163 4 -14 11 -30 16 -36 15 -19 -17 -35 -80 -41 -90 -8
-142 3 -211 48 -68 44 -68 43 -29 -47 75 -176 353 -208 503 -58 59 59 81 115
80 204 0 41 -6 89 -14 105 l-13 30 -7 -25 c-5 -20 -8 -13 -14 35 -9 66 -41
146 -75 185 -18 21 -17 17 6 -30z m68 -260 c-4 -17 -9 -30 -11 -27 -2 2 -1 18
2 36 4 17 9 30 11 27 3 -2 2 -19 -2 -36z"/>
<path d="M9020 7011 c0 -27 5 -53 10 -56 6 -4 10 13 10 44 0 27 -4 53 -10 56
-6 4 -10 -13 -10 -44z"/>
<path d="M7567 6918 c8 -95 13 -99 13 -10 0 39 -4 73 -9 77 -6 3 -8 -23 -4
-67z"/>
<path d="M3746 6907 c3 -10 9 -15 12 -12 3 3 0 11 -7 18 -10 9 -11 8 -5 -6z"/>
<path d="M3777 6845 c9 -19 20 -35 25 -35 4 0 0 16 -9 35 -9 19 -20 35 -25 35
-4 0 0 -16 9 -35z"/>
<path d="M8885 6873 c-11 -3 -24 -10 -30 -15 -12 -13 35 0 50 13 5 5 7 8 5 8
-3 -1 -14 -3 -25 -6z"/>
<path d="M7431 6838 c-1 -15 4 -30 9 -33 12 -7 12 12 0 40 -8 18 -9 17 -9 -7z"/>
<path d="M7556 6780 c-19 -49 -20 -56 -3 -41 8 6 17 7 21 3 4 -4 6 -2 5 3 -2
6 1 21 5 34 15 43 -10 45 -28 1z"/>
<path d="M7260 6790 c0 -5 5 -10 11 -10 5 0 7 5 4 10 -3 6 -8 10 -11 10 -2 0
-4 -4 -4 -10z"/>
<path d="M3825 6770 c3 -5 8 -10 11 -10 2 0 4 5 4 10 0 6 -5 10 -11 10 -5 0
-7 -4 -4 -10z"/>
<path d="M9016 6743 c-9 -57 -7 -103 4 -103 6 0 10 30 10 70 0 39 -2 70 -4 70
-2 0 -6 -17 -10 -37z"/>
<path d="M6990 6720 c6 -11 12 -20 14 -20 2 0 2 9 -1 20 -3 11 -9 20 -15 20
-5 0 -4 -9 2 -20z"/>
<path d="M7336 6713 c-18 -25 -18 -25 2 -14 25 13 35 28 25 34 -5 3 -16 -6
-27 -20z"/>
<path d="M7656 6697 c12 -32 14 -69 10 -151 -2 -59 -7 -111 -11 -114 -9 -9
-143 16 -175 33 -16 8 -42 31 -57 50 -15 19 -31 35 -34 35 -4 0 -9 -17 -12
-39 -7 -56 -34 -106 -88 -165 l-47 -52 45 -24 c38 -20 63 -24 158 -28 97 -4
126 -1 211 21 55 14 116 33 137 42 l38 16 -25 41 -25 42 30 18 c24 15 29 24
29 57 0 23 -6 44 -16 52 -14 12 -14 14 3 20 13 6 10 8 -14 8 -18 1 -33 5 -33
9 0 12 39 52 50 52 14 0 31 37 24 53 -8 21 -92 50 -176 61 l-37 5 15 -42z"/>
<path d="M7499 6688 c-17 -24 -18 -29 -6 -19 18 14 42 51 33 51 -3 0 -15 -15
-27 -32z"/>
<path d="M7258 6688 c5 -5 16 -8 23 -6 8 3 3 7 -10 11 -17 4 -21 3 -13 -5z"/>
<path d="M7410 6623 c-22 -9 -53 -13 -82 -11 -26 3 -45 1 -42 -4 14 -22 164 3
164 27 0 6 3 7 -40 -12z"/>
<path d="M1815 6544 c12 -110 23 -127 19 -29 -2 54 -8 91 -15 94 -8 2 -9 -16
-4 -65z"/>
<path d="M7068 6603 c7 -3 16 -2 19 1 4 3 -2 6 -13 5 -11 0 -14 -3 -6 -6z"/>
<path d="M4395 6577 c-22 -11 -35 -22 -29 -24 11 -4 84 34 84 43 0 7 -14 2
-55 -19z"/>
<path d="M7233 6593 c9 -2 23 -2 30 0 6 3 -1 5 -18 5 -16 0 -22 -2 -12 -5z"/>
<path d="M5958 6511 c40 -39 81 -88 90 -109 l17 -37 3 33 c2 17 7 32 12 32 4
0 11 8 14 17 6 16 6 16 -12 0 -18 -16 -20 -16 -33 -1 -7 9 -47 43 -89 76 l-75
60 73 -71z"/>
<path d="M9379 6526 c-119 -112 -234 -136 -419 -90 -23 6 -21 3 15 -35 56 -59
88 -74 149 -69 116 10 326 160 326 234 0 23 -12 16 -71 -40z m-289 -146 c0 -5
-4 -10 -10 -10 -5 0 -10 5 -10 10 0 6 5 10 10 10 6 0 10 -4 10 -10z"/>
<path d="M2315 6528 c8 -41 -9 -79 -60 -143 -39 -47 -125 -192 -119 -198 3 -2
-9 -38 -25 -80 -16 -42 -35 -99 -42 -126 -14 -55 -23 -57 -39 -8 -9 31 -10 31
-5 -8 l5 -40 -26 30 c-14 17 -39 58 -56 93 -17 35 -32 61 -34 59 -6 -6 52
-134 76 -167 25 -35 25 -43 3 -30 -10 6 -72 29 -138 51 -132 45 -273 103 -377
155 -84 42 -97 43 -33 3 82 -52 407 -189 533 -224 12 -4 22 -10 22 -14 0 -11
-156 -24 -255 -21 -238 7 -522 3 -511 -7 3 -4 127 -9 274 -11 346 -5 378 -4
435 3 31 4 47 2 43 -4 -4 -5 -106 -64 -229 -131 -256 -139 -274 -149 -424
-238 -62 -36 -110 -68 -108 -70 2 -3 10 -2 17 0 7 3 15 6 18 6 3 0 50 27 105
59 55 33 121 71 146 85 26 15 134 75 240 134 107 59 206 116 222 126 15 11 27
17 27 14 0 -10 -137 -231 -207 -337 -100 -148 -247 -448 -284 -579 -7 -25 -14
-47 -15 -48 -6 -9 -186 93 -248 140 -146 110 -290 323 -336 498 -19 73 -19 73
-14 20 4 -30 13 -72 20 -93 8 -21 23 -89 35 -150 28 -150 81 -252 200 -386 89
-100 170 -167 320 -263 147 -96 155 -99 484 -183 275 -71 456 -73 651 -5 193
66 314 171 508 437 100 137 225 245 387 332 199 108 373 130 580 74 103 -28
107 -28 403 -28 164 0 281 3 260 7 -22 4 -106 7 -187 6 -99 0 -152 3 -160 11
-8 8 -7 11 6 11 20 0 23 16 5 23 -10 4 -10 6 0 6 6 1 12 10 12 21 0 11 5 20
10 20 6 0 10 7 10 15 0 8 6 15 13 15 8 0 7 4 -3 10 -13 9 -13 11 0 20 10 6 11
10 3 10 -7 0 -13 4 -13 9 0 6 23 8 50 6 28 -2 50 0 50 4 0 5 10 9 23 9 12 0
70 5 128 11 58 6 124 8 145 6 38 -4 38 -4 -6 6 -34 9 -85 8 -201 -1 -187 -16
-216 -13 -401 39 -199 56 -255 65 -398 64 -215 -1 -376 -58 -645 -227 -189
-118 -213 -142 -375 -385 -176 -264 -362 -411 -595 -472 -166 -43 -291 -36
-492 27 -119 37 -199 77 -208 107 -4 9 -14 17 -23 18 -9 0 -12 3 -6 5 6 3 38
-11 71 -31 33 -20 70 -37 82 -40 11 -2 26 -7 31 -10 28 -17 194 -57 269 -64
332 -33 604 125 865 502 97 141 205 262 288 322 25 19 26 23 18 70 -5 28 -14
94 -20 148 -8 61 -17 97 -24 97 -19 0 -59 -61 -67 -100 -6 -31 -7 -32 -8 -7
-1 31 21 81 51 113 19 22 19 22 -13 85 -37 74 -151 251 -157 244 -3 -2 0 -17
7 -32 37 -90 53 -295 30 -393 -24 -107 -155 -317 -261 -421 -44 -44 -111 -93
-175 -131 -94 -56 -126 -79 -88 -64 8 3 15 2 15 -3 0 -14 -76 -44 -199 -77
-30 -8 -60 -18 -65 -22 -21 -15 -72 -13 -86 2 -7 9 -17 16 -23 16 -5 0 -2 -9
7 -19 10 -10 14 -21 9 -24 -22 -14 -149 -29 -243 -29 -86 0 -121 5 -190 27
-47 15 -89 30 -93 35 -5 4 3 38 16 76 36 101 155 365 187 414 9 14 51 77 92
140 41 63 109 171 149 239 l74 124 7 -39 c23 -129 3 -268 -56 -387 -47 -94
-67 -181 -64 -277 1 -32 2 -36 5 -15 15 115 59 275 76 275 2 0 2 -76 -1 -170
-3 -123 -2 -170 7 -170 8 0 11 46 11 155 0 113 5 182 20 257 11 57 23 145 26
196 4 51 11 89 15 85 4 -4 21 -42 37 -83 43 -109 83 -190 93 -190 5 0 -2 22
-15 48 -35 69 -117 275 -111 280 6 6 48 -26 165 -127 52 -46 145 -115 205
-155 128 -85 135 -89 135 -82 0 3 -48 38 -107 78 -59 39 -112 75 -118 79 -27
21 -106 89 -155 134 -30 27 -72 65 -94 83 -21 18 -36 36 -33 38 3 3 47 -9 99
-26 100 -35 268 -54 282 -32 4 7 -4 9 -26 6 -69 -12 -291 36 -288 61 1 5 -7
12 -16 15 -15 5 -7 14 36 43 30 20 78 53 105 72 28 20 80 54 116 75 63 38 65
40 61 74 -3 24 0 36 8 36 7 0 10 7 6 15 -3 8 2 19 12 24 9 6 13 11 9 11 -4 0
-3 9 3 21 9 16 5 32 -26 87 -20 37 -53 87 -74 112 -20 25 -40 55 -44 67 -4 11
-14 27 -22 34 -14 11 -15 9 -9 -23z m-1100 -1588 c3 -6 -1 -7 -9 -4 -18 7 -21
14 -7 14 6 0 13 -4 16 -10z m30 -30 c3 -5 1 -10 -4 -10 -6 0 -11 5 -11 10 0 6
2 10 4 10 3 0 8 -4 11 -10z m83 -69 c57 -40 174 -94 203 -94 21 0 26 -3 17
-10 -9 -6 -6 -7 10 -4 12 3 22 1 22 -5 0 -6 9 -8 20 -5 12 3 18 1 14 -5 -4 -6
2 -8 16 -3 17 5 20 4 15 -5 -6 -10 -1 -12 18 -8 16 3 31 0 38 -8 7 -9 8 -14 1
-14 -24 0 -188 53 -246 79 -61 27 -179 101 -162 101 4 0 20 -8 34 -19z m425
-148 c-7 -2 -19 -2 -25 0 -7 3 -2 5 12 5 14 0 19 -2 13 -5z m414 -99 c-3 -3
-12 -4 -19 -1 -8 3 -5 6 6 6 11 1 17 -2 13 -5z"/>
<path d="M5821 6507 c-13 -21 -12 -21 5 -5 10 10 16 20 13 22 -3 3 -11 -5 -18
-17z"/>
<path d="M5879 6448 l-20 -43 5 35 5 35 -14 -30 c-8 -16 -17 -47 -21 -68 l-7
-38 -46 6 -46 5 47 -17 c69 -26 138 -101 125 -136 -2 -7 -10 0 -17 16 -7 15
-18 27 -23 27 -5 0 -2 -11 7 -25 18 -27 23 -100 6 -90 -5 3 -10 1 -10 -6 0 -7
-8 -6 -24 4 -20 13 -26 14 -35 3 -12 -14 -5 -26 16 -26 16 0 143 -79 143 -88
-1 -32 -93 -67 -151 -57 -55 9 -159 88 -159 121 0 18 7 25 28 30 41 10 43 13
28 37 -22 34 -44 129 -38 167 3 21 1 31 -6 26 -22 -13 -24 -68 -6 -139 15 -56
16 -71 6 -75 -7 -2 -18 -15 -23 -29 l-10 -26 -35 39 c-20 22 -30 30 -23 19 13
-18 13 -19 -4 -6 -9 8 -30 36 -45 62 -15 27 -30 49 -34 49 -13 0 4 -64 23 -88
38 -49 89 -102 99 -102 5 0 10 -4 10 -10 0 -5 5 -10 11 -10 6 0 17 -6 24 -14
11 -10 11 -16 2 -26 -9 -10 -7 -11 10 -6 24 8 53 -24 53 -59 0 -16 2 -17 10
-5 13 21 23 5 11 -18 -6 -12 -11 -31 -11 -43 0 -21 -3 -21 -75 -17 -42 3 -75
1 -75 -4 0 -5 -10 -6 -22 -3 -16 5 -20 4 -13 -4 6 -6 37 -17 70 -24 l60 -14 0
-56 c0 -45 5 -60 24 -81 14 -14 33 -26 43 -26 11 0 31 -13 46 -29 31 -33 75
-47 182 -57 86 -7 190 15 283 62 64 32 346 216 347 226 0 4 -14 30 -31 58
l-31 50 25 30 c45 53 45 70 -1 110 l-42 35 20 30 c35 53 21 50 -29 -6 -26 -29
-68 -65 -92 -78 l-44 -23 29 26 c44 39 22 54 -39 27 -26 -12 -50 -21 -52 -21
-3 0 18 18 45 40 28 21 53 44 57 50 11 18 -5 27 -18 10 -14 -17 -53 -27 -42
-11 9 16 18 97 9 88 -4 -4 -9 -14 -11 -22 -2 -8 -4 -22 -6 -30 -9 -45 -13 -11
-9 93 3 93 1 124 -12 152 l-16 35 5 -44 c5 -41 5 -43 -17 -37 -61 17 -99 17
-151 2 -30 -9 -58 -23 -61 -32 -4 -9 -13 -14 -21 -10 -9 3 -20 -3 -27 -14 -18
-28 -28 -25 -29 8 -1 19 -4 14 -10 -18 -18 -95 -18 -94 -39 -75 -10 9 -24 14
-30 10 -8 -5 -5 -12 7 -22 10 -8 12 -12 6 -8 -7 3 -13 1 -13 -6 0 -17 -11 -4
-43 53 l-27 47 34 64 c19 37 30 70 26 77 -6 9 -11 7 -19 -6 -10 -16 -10 -15
-5 9 9 40 -4 33 -27 -15z m430 -81 c24 -20 7 -126 -30 -193 -35 -61 -69 -83
-120 -76 -26 4 -30 8 -27 31 2 16 8 25 17 23 12 -3 12 0 1 12 -7 9 -16 16 -21
16 -12 0 -40 -58 -37 -77 2 -9 -3 -18 -10 -21 -11 -3 -13 13 -10 77 3 83 1 90
-20 69 -6 -6 -14 -9 -18 -6 -9 9 72 115 99 129 67 37 142 43 176 16z m-270
-256 c2 -81 -8 -99 -43 -83 -23 10 -25 15 -21 64 2 29 2 45 -1 35 -3 -10 -17
-29 -30 -42 -20 -20 -26 -22 -30 -10 -4 8 -3 23 1 33 8 16 8 16 12 -1 3 -9 9
-15 14 -12 12 8 12 75 -1 75 -5 0 -10 7 -10 15 0 8 4 15 9 15 14 0 61 -64 61
-83 0 -9 5 -19 10 -22 6 -3 10 5 10 19 0 14 -4 28 -10 31 -11 7 -14 58 -3 69
14 14 30 -38 32 -103z m201 -35 c0 -24 -41 -63 -94 -91 -55 -28 -73 -30 -111
-13 l-26 12 38 33 c21 18 54 37 73 42 19 5 51 14 70 19 49 14 50 14 50 -2z
m-283 -18 c-3 -8 -6 -5 -6 6 -1 11 2 17 5 13 3 -3 4 -12 1 -19z m412 -224 c7
-75 1 -108 -18 -89 -6 6 -7 25 -1 50 5 22 7 41 4 44 -2 2 -4 -1 -4 -8 0 -7 -4
-9 -10 -6 -5 3 -10 15 -10 26 0 13 4 18 12 13 8 -5 9 5 5 37 -5 34 -5 40 4 26
6 -10 14 -52 18 -93z m-523 -39 c9 -39 0 -30 -15 15 -6 19 -7 30 -2 25 5 -6
13 -23 17 -40z m464 -42 c9 -9 -65 9 -74 18 -5 4 8 3 30 -2 21 -6 41 -13 44
-16z m-416 -60 c14 -24 23 -43 18 -43 -9 0 -52 72 -52 86 0 10 3 6 34 -43z"/>
<path d="M5791 6444 c0 -11 3 -14 6 -6 3 7 2 16 -1 19 -3 4 -6 -2 -5 -13z"/>
<path d="M5777 6396 c-5 -15 -6 -31 -3 -34 8 -8 18 25 14 45 -3 13 -6 10 -11
-11z"/>
<path d="M5560 6320 c19 -12 51 -12 69 -1 8 5 -4 9 -35 9 -35 1 -45 -1 -34 -8z"/>
<path d="M3628 6303 c6 -2 18 -2 25 0 6 3 1 5 -13 5 -14 0 -19 -2 -12 -5z"/>
<path d="M1160 6296 c0 -2 7 -7 16 -10 8 -3 12 -2 9 4 -6 10 -25 14 -25 6z"/>
<path d="M3503 6293 c9 -2 23 -2 30 0 6 3 -1 5 -18 5 -16 0 -22 -2 -12 -5z"/>
<path d="M7753 6254 c-148 -55 -253 -63 -398 -29 -98 23 -196 38 -203 31 -7
-8 48 -55 65 -56 15 0 46 -58 64 -119 12 -42 39 -66 47 -43 7 23 21 12 28 -23
10 -57 23 -60 111 -24 57 23 89 45 120 77 l42 45 70 -30 c81 -36 87 -33 100
44 4 27 15 60 24 74 20 28 23 80 5 78 -7 -1 -41 -12 -75 -25z"/>
<path d="M2575 6160 c-14 -7 -8 -8 20 -3 22 3 42 7 44 9 9 8 -45 2 -64 -6z"/>
<path d="M5760 6130 c6 -11 15 -20 20 -20 6 0 2 9 -7 20 -10 11 -19 20 -21 20
-1 0 2 -9 8 -20z"/>
<path d="M2480 6130 c-8 -5 -10 -10 -5 -10 6 0 17 5 25 10 8 5 11 10 5 10 -5
0 -17 -5 -25 -10z"/>
<path d="M8820 5873 c0 -5 -9 -84 -20 -178 -11 -93 -20 -197 -21 -230 -1 -33
-4 -73 -8 -90 -6 -29 -7 -28 -56 45 -60 90 -225 310 -232 310 -3 0 12 -24 33
-52 107 -148 183 -257 205 -293 l24 -40 -30 19 c-75 49 -198 105 -263 120 -79
18 -159 21 -182 6 -11 -7 -3 -10 30 -10 83 0 230 -30 282 -56 77 -39 158 -95
152 -105 -3 -5 -15 -9 -27 -10 -12 0 -31 -5 -42 -10 -14 -6 -4 -7 30 -3 l50 6
-95 -57 c-52 -31 -121 -66 -155 -77 -75 -26 -177 -29 -222 -5 -46 24 -58 22
-39 -8 9 -14 14 -30 11 -36 -4 -5 1 -22 10 -36 25 -38 36 -81 22 -86 -27 -10
66 -65 139 -83 l52 -12 79 87 c91 98 140 164 177 238 14 28 30 54 35 57 12 8
3 -90 -15 -159 -7 -27 -11 -51 -9 -53 7 -7 35 95 36 132 0 23 4 49 8 60 10 26
26 -32 42 -149 13 -97 7 -381 -7 -395 -14 -14 -144 17 -217 50 -45 20 -78 44
-102 74 -24 28 -43 42 -54 39 -10 -2 -41 5 -71 16 -30 11 -56 19 -58 16 -13
-13 60 -94 113 -125 41 -25 53 -36 41 -38 -10 -2 -22 1 -26 8 -5 8 -10 9 -14
2 -10 -16 15 -61 29 -55 17 6 55 -14 55 -30 0 -18 75 -61 160 -92 91 -33 232
-44 336 -26 155 27 309 131 374 253 18 34 35 57 38 50 5 -16 -53 -123 -94
-170 -43 -51 -120 -101 -209 -137 -61 -25 -86 -29 -200 -33 -163 -5 -217 8
-380 90 -225 114 -604 239 -767 255 -37 3 -68 10 -68 14 0 5 10 9 22 9 12 0
19 3 16 6 -15 14 -340 -67 -480 -119 -137 -52 -211 -99 -413 -263 -207 -167
-436 -281 -664 -329 -68 -14 -76 -14 -84 0 -8 15 -11 15 -29 -2 -15 -14 -40
-19 -105 -22 -98 -4 -168 8 -303 51 -140 45 -187 71 -205 115 -9 20 -27 52
-41 70 -16 21 -19 31 -9 27 8 -3 15 -1 15 5 0 6 -5 11 -11 11 -6 0 -8 9 -4 20
5 16 2 20 -17 19 -18 0 -20 -2 -6 -7 12 -5 14 -12 9 -21 -7 -11 -13 -8 -26 13
-14 21 -15 29 -5 41 9 10 9 15 1 15 -6 0 -11 -4 -11 -10 0 -5 -5 -10 -10 -10
-7 0 -7 7 0 21 10 18 9 20 -7 17 -24 -5 -116 83 -100 95 8 6 5 7 -6 3 -25 -8
-88 40 -80 61 5 13 2 15 -15 11 -15 -4 -22 -2 -22 8 0 13 -11 18 -37 15 -18
-2 -26 19 -9 25 17 6 76 -16 76 -28 0 -5 9 -8 21 -8 16 0 19 -4 14 -20 -5 -17
-1 -19 32 -18 56 1 59 -1 37 -17 -16 -12 -17 -14 -2 -15 9 0 19 6 21 13 4 9 8
9 14 1 4 -6 27 -20 51 -31 23 -11 40 -21 38 -24 -3 -3 3 -5 12 -6 9 -1 46 -12
82 -26 89 -34 172 -58 165 -48 -2 5 -17 12 -32 15 -103 25 -266 104 -443 215
-232 146 -343 184 -535 185 -117 0 -171 -9 -300 -49 l-50 -16 21 22 c33 32
196 69 344 78 72 4 128 3 131 -2 4 -5 12 -7 18 -3 6 4 20 2 31 -4 15 -8 25 -8
38 0 15 10 15 11 -2 5 -11 -3 -23 -1 -26 6 -4 6 -72 17 -156 25 -133 13 -158
13 -234 -1 -202 -38 -247 -54 -474 -176 -371 -199 -456 -254 -777 -500 -135
-103 -285 -212 -333 -243 -154 -96 -334 -146 -481 -131 -140 13 -304 47 -507
105 -225 64 -363 86 -470 75 -91 -8 -198 -39 -285 -81 -79 -38 -131 -48 -73
-14 283 165 471 174 880 43 131 -42 317 -75 450 -80 112 -5 135 -3 222 20 168
45 237 87 603 361 264 199 421 301 625 408 240 127 315 168 306 168 -9 0 -74
-32 -156 -77 -30 -17 -116 -61 -190 -99 -74 -38 -162 -85 -195 -106 -33 -20
-84 -51 -114 -68 -29 -18 -65 -43 -80 -56 -14 -13 -30 -24 -35 -24 -9 0 -109
-80 -114 -92 -2 -5 -8 -8 -13 -8 -6 0 -19 -9 -31 -20 -12 -10 -25 -17 -30 -14
-5 3 -7 1 -6 -4 7 -22 -355 -277 -379 -267 -8 2 -11 1 -8 -5 10 -17 -203 -95
-236 -87 -11 3 -16 1 -13 -4 3 -6 -22 -8 -63 -5 -48 3 -59 1 -38 -4 41 -12
-99 -4 -185 10 -159 26 -356 76 -443 113 -21 9 -62 19 -90 23 -29 4 -63 12
-77 19 -40 19 -269 11 -360 -14 -41 -11 -76 -18 -79 -15 -2 2 1 4 7 4 7 0 12
9 12 20 0 13 -7 20 -20 20 -13 0 -20 -7 -20 -19 0 -11 -6 -22 -12 -24 -7 -3
-4 -6 7 -6 16 -1 17 -3 6 -10 -17 -11 -40 13 -41 42 0 9 -6 17 -12 17 -10 0
-10 2 0 9 8 4 13 11 13 15 -2 12 62 131 84 158 13 15 26 24 30 20 5 -4 5 -1 0
6 -5 10 8 29 41 59 27 25 40 41 29 35 -61 -32 -238 -283 -216 -305 6 -6 11
-15 11 -21 0 -5 -6 -2 -13 8 -12 16 -16 12 -50 -41 -43 -69 -106 -143 -107
-126 0 7 26 57 58 110 32 54 80 141 106 193 78 154 152 236 241 268 22 8 25
11 10 11 -22 1 -113 -55 -156 -95 -14 -14 -32 -37 -40 -52 -7 -15 -28 -51 -46
-80 -18 -29 -33 -57 -33 -62 0 -18 -48 -79 -56 -72 -5 4 -4 0 2 -8 8 -11 -1
-35 -37 -98 -38 -68 -48 -80 -53 -64 -4 11 -4 33 0 49 17 77 57 209 65 218 5
5 9 19 9 32 0 12 4 32 9 45 29 74 56 398 34 398 -10 0 -13 -27 -13 -106 0
-135 -13 -223 -55 -359 -47 -153 -62 -215 -80 -332 -23 -158 -18 -327 9 -258
9 24 157 128 231 162 156 72 317 90 470 54 125 -29 143 -39 164 -80 17 -34 17
-39 2 -81 -9 -25 -37 -83 -63 -130 -49 -88 -98 -223 -98 -269 0 -14 -3 -37 -7
-49 -13 -50 -23 6 -23 133 0 96 -3 125 -11 112 -6 -11 -9 -69 -7 -148 2 -71 0
-129 -3 -129 -7 0 -60 117 -78 173 -12 35 -31 51 -31 25 0 -10 46 -126 77
-196 3 -7 -23 3 -58 23 -92 53 -561 283 -593 291 -50 12 -26 -12 41 -41 122
-52 603 -296 603 -306 0 -12 25 -16 -296 51 -233 49 -452 90 -479 90 -3 0 -5
-6 -5 -14 0 -9 21 -15 71 -20 40 -3 142 -22 228 -40 86 -19 183 -39 216 -46
153 -29 247 -53 234 -60 -15 -8 -225 -42 -377 -60 -99 -13 -432 -10 -432 3 0
4 -4 7 -10 7 -22 0 2 -218 41 -360 23 -84 96 -228 171 -337 84 -122 221 -230
376 -298 214 -93 340 -98 569 -19 220 75 275 87 398 86 129 -1 270 -33 450
-102 61 -23 133 -48 160 -56 100 -28 221 -12 313 42 54 32 145 121 167 164 15
29 35 40 35 20 0 -18 -74 -112 -123 -157 -87 -81 -195 -118 -321 -111 -68 4
-105 14 -228 61 -225 85 -299 102 -453 101 -138 0 -131 1 -386 -77 -136 -42
-269 -62 -352 -53 -72 7 -213 54 -304 100 -82 41 -217 146 -242 187 l-18 30 5
-93 c4 -80 -1 -119 -33 -278 -36 -178 -37 -191 -32 -340 6 -174 22 -252 85
-398 103 -238 312 -464 527 -571 212 -105 339 -125 735 -116 313 6 363 3 670
-42 539 -78 1080 -5 1356 185 33 22 100 77 149 122 187 168 305 225 465 225
86 -1 178 -23 211 -51 8 -8 22 -14 30 -14 23 0 184 -58 314 -112 163 -69 271
-105 390 -133 113 -26 93 -32 -35 -10 -110 19 -186 45 -350 118 -74 32 -207
84 -295 114 -207 71 -276 77 -398 39 -99 -30 -168 -75 -292 -186 -126 -113
-178 -152 -268 -200 -43 -23 -76 -47 -74 -53 7 -21 92 -38 222 -44 152 -7 238
7 374 61 158 63 188 64 340 12 203 -70 394 -58 682 42 182 64 228 63 487 -13
332 -97 611 -102 1111 -19 214 35 352 34 581 -5 329 -57 564 -64 790 -26 386
66 683 280 848 611 87 174 122 318 122 504 0 124 -13 208 -61 405 -53 216 -50
372 12 575 65 216 82 388 55 580 -28 209 -48 463 -43 560 2 53 16 139 30 195
66 259 78 414 53 735 -20 270 -27 321 -36 296 -7 -21 -17 -6 -88 124 -20 36
-59 103 -87 150 -29 47 -68 112 -88 145 -92 155 -115 189 -156 228 l-44 42 41
-52 c45 -59 116 -172 111 -177 -6 -6 -147 -65 -219 -92 -36 -14 -110 -43 -165
-65 -146 -59 -144 -60 -79 18 72 86 231 362 217 377 -3 3 -40 -57 -82 -134
-73 -134 -126 -214 -192 -290 l-30 -35 6 110 c6 113 31 363 40 403 3 12 1 22
-5 22 -5 0 -10 -3 -10 -7z m553 -393 c10 -30 21 -81 24 -112 l6 -58 -54 0
c-30 1 -155 5 -278 10 -124 5 -231 5 -240 1 -15 -9 27 -12 386 -28 94 -5 175
-11 178 -15 4 -4 0 -40 -9 -81 -18 -80 -70 -178 -137 -258 -22 -27 -37 -49
-33 -49 4 0 -3 -11 -16 -25 -13 -14 -29 -25 -36 -25 -10 0 -89 120 -185 284
-32 55 -139 166 -160 166 -5 0 19 -28 54 -62 57 -57 120 -150 245 -367 l25
-44 -24 -18 c-47 -36 -152 -72 -214 -73 l-60 -1 -7 220 c-3 121 -12 240 -18
265 -20 79 -20 107 -2 123 9 8 96 44 192 80 96 37 207 80 245 97 39 16 76 29
84 27 8 -1 23 -27 34 -57z m7 -459 c0 -7 -92 -84 -144 -120 -40 -27 26 39 84
85 60 48 60 48 60 35z m266 -311 c-15 -116 -31 -155 -70 -170 -13 -5 -41 -30
-62 -55 -47 -55 -159 -143 -230 -178 -150 -75 -323 -76 -629 -3 -104 25 -203
46 -220 46 -57 0 -104 12 -110 28 -9 24 130 9 287 -32 263 -68 405 -82 536
-51 155 37 336 172 400 300 26 53 65 179 89 285 l18 85 3 -72 c2 -39 -4 -122
-12 -183z m-4863 199 c12 -7 28 -13 37 -14 19 -2 70 -23 70 -29 0 -2 -36 5
-79 17 -44 11 -78 24 -75 29 7 11 21 10 47 -3z m-9 -35 c26 -9 46 -18 44 -20
-5 -4 -85 20 -94 29 -11 10 -3 9 50 -9z m-77 -9 c230 -49 402 -143 559 -307
93 -97 136 -160 193 -282 31 -68 38 -92 29 -98 -7 -4 -8 -8 -3 -8 23 0 40
-124 39 -278 -1 -84 -4 -156 -8 -159 -5 -6 -54 8 -192 53 -38 13 -104 29 -145
36 -93 16 -490 16 -578 0 -101 -18 -95 -7 39 72 80 47 288 133 477 196 62 21
113 42 113 46 -1 5 7 12 17 16 46 21 -125 -27 -185 -51 -26 -10 -85 -33 -132
-51 -199 -75 -299 -122 -382 -181 -14 -11 -29 -19 -33 -19 -20 0 78 152 135
209 119 120 428 411 479 452 51 39 65 63 35 57 -8 -2 -106 -88 -217 -193 -345
-325 -380 -362 -418 -440 l-34 -70 -7 190 c-14 354 -28 577 -39 593 -9 15 -10
14 -4 -3 12 -39 28 -732 16 -752 -9 -16 -10 -16 -11 7 -1 70 -71 254 -122 320
-48 61 -222 250 -226 245 -3 -3 -15 3 -26 12 l-20 18 20 -26 c11 -14 66 -76
124 -138 118 -126 151 -173 181 -251 45 -118 69 -234 37 -176 -6 11 -24 32
-39 47 -15 15 -25 30 -21 35 4 4 1 4 -5 0 -8 -4 -13 -2 -13 7 0 35 -189 147
-315 186 -85 27 -285 41 -285 21 0 -8 8 -10 25 -6 36 9 204 -21 294 -53 100
-35 176 -81 255 -153 69 -62 142 -160 132 -177 -4 -5 -28 -13 -54 -17 -45 -6
-132 -38 -132 -48 0 -2 25 4 55 15 30 10 65 19 77 19 23 -1 23 -1 3 -15 -78
-54 -125 -92 -130 -103 -3 -8 0 -10 8 -6 6 4 -12 -18 -41 -48 -36 -37 -85 -72
-145 -103 -113 -60 -157 -99 -218 -195 l-49 -75 -77 81 c-89 92 -131 159 -108
168 8 3 14 2 14 -2 -3 -21 3 -32 17 -32 13 0 12 4 -4 28 -30 41 -112 206 -112
224 0 34 158 124 278 157 151 42 293 35 495 -24 100 -29 137 -32 93 -9 -57 31
-258 76 -366 81 -86 5 -120 2 -188 -15 -97 -25 -241 -90 -277 -126 l-25 -25
-27 25 c-28 26 -28 26 -27 157 1 142 13 204 62 331 98 252 366 481 682 581
141 44 332 57 457 30z m270 -28 c4 -7 0 -8 -11 -4 -10 4 -22 7 -27 7 -5 0 -9
4 -9 9 0 12 38 2 47 -12z m-107 3 c8 -5 11 -10 5 -10 -5 0 -17 5 -25 10 -8 5
-10 10 -5 10 6 0 17 -5 25 -10z m50 -20 c8 -5 11 -10 5 -10 -5 0 -17 5 -25 10
-8 5 -10 10 -5 10 6 0 17 -5 25 -10z m2784 -20 c168 -25 336 -111 467 -241 45
-43 79 -83 77 -88 -5 -14 -204 -158 -282 -203 -37 -22 -116 -58 -175 -80 -58
-21 -127 -48 -153 -59 -26 -10 -50 -19 -54 -19 -3 0 43 48 103 108 61 59 123
130 138 157 16 28 52 88 81 135 51 82 90 160 79 160 -2 0 -18 -26 -34 -58 -77
-152 -158 -264 -277 -383 -65 -65 -120 -116 -122 -114 -7 7 20 66 56 124 42
65 86 160 79 168 -3 3 -29 -41 -58 -98 -50 -98 -53 -102 -60 -74 -4 17 -7 47
-8 69 -1 41 -56 214 -73 231 -8 7 -9 5 -5 -6 62 -178 81 -311 57 -385 l-13
-39 -18 84 c-10 46 -22 87 -25 90 -4 3 -3 -7 1 -24 4 -16 9 -52 11 -78 2 -27
9 -58 15 -70 8 -14 -3 -9 -37 18 -121 96 -193 183 -297 363 -41 70 -49 139
-22 191 18 36 101 76 209 101 134 31 223 36 340 20z m-2653 -17 c13 -16 12
-17 -3 -4 -10 7 -18 15 -18 17 0 8 8 3 21 -13z m3479 -24 c0 -5 -4 -9 -8 -9
-5 0 -9 7 -9 15 0 8 4 12 9 9 4 -3 8 -9 8 -15z m20 -39 c6 -11 9 -20 7 -20 -2
0 -12 9 -22 20 -10 11 -13 20 -7 20 6 0 16 -9 22 -20z m-267 -129 c50 -21 76
-54 55 -68 -33 -20 -54 -12 -95 33 -24 25 -43 48 -43 50 0 10 43 2 83 -15z
m40 -240 c26 -50 47 -100 47 -109 0 -13 -41 -29 -188 -75 -103 -31 -218 -64
-257 -72 -89 -19 -355 -32 -355 -18 0 12 -5 10 165 69 169 59 280 119 413 220
59 45 112 81 117 80 6 -1 31 -44 58 -95z m-1143 78 c0 -5 -42 -9 -92 -8 -51 0
-85 4 -76 7 27 11 168 11 168 1z m-3790 -131 c0 -15 -22 -33 -238 -195 -231
-174 -336 -228 -497 -260 -90 -17 -215 -11 -248 12 -18 13 -18 14 14 19 19 3
63 8 98 11 83 8 251 63 354 117 45 23 165 98 266 167 195 131 251 160 251 129z
m6130 -37 c0 -4 -17 -11 -37 -14 -21 -4 -46 -8 -55 -9 -9 -2 -18 2 -20 7 -3 8
21 14 100 23 6 1 12 -2 12 -7z m-2518 -41 c51 -11 150 -47 238 -86 84 -36 169
-68 190 -71 40 -6 45 -19 23 -59 -6 -11 -29 -65 -51 -120 -22 -55 -57 -129
-78 -164 -37 -64 -200 -238 -257 -275 l-28 -18 -75 74 c-41 41 -90 100 -109
132 -68 114 -123 321 -113 426 2 28 0 37 -8 30 -10 -8 -10 -102 0 -144 3 -11
2 -25 -2 -31 -12 -18 -223 -159 -302 -202 -41 -22 -147 -65 -235 -95 -190 -65
-300 -108 -346 -136 -45 -28 -63 -28 -49 -1 15 29 148 88 341 153 156 53 313
120 324 137 3 5 -13 -1 -36 -11 -22 -11 -46 -18 -52 -16 -7 3 -1 9 13 15 14 6
32 17 41 24 24 20 37 67 17 61 -4 -2 -4 5 -1 15 6 16 5 16 -13 0 -37 -32 -117
-69 -128 -58 -11 11 -13 9 44 44 25 16 36 25 25 21 -226 -76 -386 -92 -531
-54 -70 18 -162 65 -150 76 2 3 42 -8 88 -23 76 -26 96 -28 233 -29 127 0 162
4 230 23 112 32 223 87 340 167 139 95 175 125 182 153 8 33 59 62 108 62 22
0 79 -9 127 -20z m2516 -27 c-4 -37 -34 -43 -40 -9 -6 30 -2 36 24 36 15 0 19
-6 16 -27z m-1126 -28 c4 -22 7 -57 7 -78 1 -33 -2 -37 -17 -33 -10 4 -110 8
-222 11 -111 2 -204 6 -207 8 -2 2 38 16 89 31 51 15 143 44 203 66 61 21 117
38 125 37 9 -1 18 -18 22 -42z m-2057 -23 c-28 -24 -247 -92 -295 -92 -44 0
-6 20 108 55 64 20 122 38 127 40 21 7 68 5 60 -3z m-5242 -24 c4 -14 -1 -18
-20 -18 -20 0 -24 -4 -18 -17 5 -14 4 -15 -6 -6 -10 10 -10 17 0 36 15 28 38
31 44 5z m8203 -33 c168 -63 277 -205 286 -375 l3 -55 -60 3 c-79 4 -260 31
-291 43 -16 5 -24 16 -22 26 3 19 -65 125 -100 156 -36 32 -231 119 -217 97 3
-6 11 -10 17 -10 6 0 39 -14 75 -32 70 -34 193 -155 193 -189 0 -24 -2 -24
-50 1 -22 11 -47 20 -57 20 -11 -1 -4 -7 16 -16 19 -8 32 -16 30 -18 -2 -2
-44 -1 -94 3 -71 6 -84 9 -60 15 17 4 44 12 60 17 27 8 26 8 -10 4 -22 -2 -56
-7 -75 -10 -32 -5 -37 -3 -65 36 -105 147 -107 158 -41 216 105 93 313 123
462 68z m-1027 -45 c68 -5 126 -11 129 -14 10 -11 -19 -197 -39 -249 -11 -28
-23 -65 -25 -80 -4 -33 -34 -87 -47 -87 -8 0 -295 202 -362 254 l-20 16 20 -7
c11 -3 69 -28 128 -56 60 -27 111 -47 114 -44 6 7 -104 63 -217 110 -47 19
-143 64 -215 99 l-130 63 110 5 c137 6 391 2 554 -10z m-755 -127 c0 -157 -15
-210 -118 -433 -76 -162 -89 -185 -108 -182 -29 3 -183 79 -198 97 -16 19 -6
32 65 94 126 110 186 198 258 377 91 223 101 228 101 47z m117 97 c127 -53
217 -107 387 -233 210 -156 264 -199 269 -214 9 -27 -162 -180 -255 -227 l-33
-17 -21 53 c-41 98 -199 411 -243 479 -49 76 -112 149 -128 149 -6 0 3 -15 20
-32 56 -60 141 -202 223 -377 88 -185 125 -281 113 -292 -21 -18 -225 -69
-278 -69 -6 0 -10 93 -11 258 0 251 -1 259 -28 347 -26 85 -39 115 -81 178 -9
15 -15 27 -13 27 3 0 38 -14 79 -30z m-66 -26 c38 -65 72 -172 86 -267 11 -79
6 -342 -8 -446 l-6 -44 -70 6 c-112 10 -217 37 -217 58 0 25 23 85 75 195 88
187 99 229 99 396 1 82 4 148 8 148 3 0 18 -21 33 -46z m-4166 -90 c50 -17 90
-48 77 -61 -3 -4 -23 1 -43 11 -113 54 -209 27 -449 -124 -176 -112 -291 -150
-446 -150 -141 0 -266 43 -465 162 -65 38 -149 80 -188 92 -38 13 -71 28 -73
35 -11 33 125 -18 260 -97 223 -132 337 -168 501 -159 151 8 211 33 457 187
95 59 154 87 220 106 62 17 90 17 149 -2z m1876 -118 c55 -15 129 -39 163 -53
l64 -27 -7 -42 c-14 -96 -91 -266 -184 -403 -7 -11 -21 -1 -67 48 -101 109
-310 251 -559 380 -153 79 -182 97 -172 108 15 14 154 21 402 19 248 -3 265
-4 360 -30z m-698 -260 c122 -339 190 -541 196 -583 7 -42 7 -42 -27 -49 -44
-8 -232 -1 -242 8 -4 5 4 43 18 85 31 93 39 127 43 171 5 52 -9 37 -27 -30
-23 -88 -66 -178 -85 -178 -32 0 -100 82 -119 145 -10 33 -22 63 -27 66 -22
15 7 112 69 233 73 143 94 210 95 315 l1 76 20 -39 c11 -21 49 -120 85 -220z
m1330 248 c-3 -3 -12 -4 -19 -1 -8 3 -5 6 6 6 11 1 17 -2 13 -5z m428 -4 c3
-6 -1 -7 -9 -4 -18 7 -21 14 -7 14 6 0 13 -4 16 -10z m-1616 -127 c159 -87
264 -153 353 -223 27 -22 55 -37 60 -33 6 3 8 2 5 -4 -4 -6 4 -20 17 -32 13
-12 26 -19 28 -14 3 4 4 3 2 -3 -1 -6 18 -31 42 -55 33 -32 44 -50 41 -66 -3
-15 2 -23 16 -27 10 -2 17 -11 15 -18 -7 -20 -115 -105 -193 -151 -65 -38
-241 -107 -275 -107 -10 0 -23 25 -39 78 -37 122 -82 254 -101 297 -9 22 -34
85 -55 140 -38 104 -112 299 -123 325 -5 12 0 11 22 -4 16 -10 99 -56 185
-103z m-273 33 c-9 -54 -15 -70 -29 -72 -11 -1 -17 2 -14 9 2 7 15 40 27 75
13 34 24 61 25 60 2 -2 -2 -34 -9 -72z m4613 58 c17 -4 28 -10 25 -15 -3 -5
12 -9 34 -9 21 0 41 -3 45 -6 3 -4 -18 -27 -48 -51 -30 -25 -53 -49 -50 -53 3
-5 0 -12 -6 -16 -8 -4 -9 -3 -5 4 4 7 4 12 0 12 -8 0 -104 -70 -104 -77 0 -2
13 5 30 17 16 12 34 18 40 15 12 -8 82 44 75 55 -3 5 0 12 6 16 8 4 9 3 5 -4
-18 -29 15 -8 54 34 l42 45 61 -15 c34 -9 116 -21 182 -28 66 -6 123 -14 128
-17 4 -4 0 -30 -8 -58 -17 -58 -78 -141 -119 -162 -24 -13 -28 -13 -46 5 -10
10 -44 64 -75 119 -31 55 -64 107 -72 115 -11 10 -10 4 4 -20 11 -19 37 -66
58 -105 21 -38 50 -85 64 -104 25 -33 25 -34 6 -47 -36 -27 -146 -54 -214 -54
-38 0 -90 9 -123 20 -55 18 -158 78 -158 91 0 4 12 14 26 24 14 9 23 19 21 22
-3 2 -17 -3 -31 -12 -32 -21 -50 -10 -76 48 -16 34 -27 43 -96 71 -79 33 -170
84 -162 92 3 2 55 -19 116 -46 62 -28 114 -50 117 -50 3 0 5 7 5 15 0 81 136
151 249 129z m-5865 -184 c124 -48 250 -140 353 -261 30 -35 114 -154 187
-264 73 -110 158 -228 190 -262 65 -70 171 -146 258 -183 73 -31 75 -45 5 -21
-77 27 -113 47 -193 106 -93 70 -137 123 -288 352 -185 281 -315 407 -500 487
-61 26 -83 30 -161 31 -101 0 -142 -15 -217 -83 -55 -50 -78 -102 -78 -181 0
-134 40 -193 179 -261 49 -25 90 -49 91 -54 0 -15 -75 1 -137 29 -147 65 -222
221 -179 370 22 74 94 152 180 196 58 29 65 31 156 26 65 -3 113 -12 154 -27z
m5851 20 c-3 -5 -11 -10 -16 -10 -6 0 -7 5 -4 10 3 6 11 10 16 10 6 0 7 -4 4
-10z m-6823 -37 c48 -46 97 -157 109 -249 6 -44 9 -98 7 -120 l-3 -39 -60 3
c-161 9 -416 62 -555 117 -105 41 -103 43 55 60 64 7 190 43 182 52 -3 3 -27
-2 -54 -11 -49 -16 -215 -40 -232 -34 -11 3 240 175 299 204 118 59 202 65
252 17z m4322 1 c17 -17 22 -44 7 -44 -5 0 -11 8 -15 18 -3 9 -9 23 -12 30 -8
17 1 15 20 -4z m2106 -3 c0 -5 3 -18 7 -28 6 -16 5 -16 -10 -4 -19 15 -23 41
-7 41 6 0 10 -4 10 -9z m-2204 -20 c28 -4 59 -14 67 -23 14 -14 4 -16 -106
-21 -149 -6 -221 -28 -422 -128 l-139 -69 54 56 c97 100 198 151 351 179 85
15 123 16 195 6z m339 -145 c112 -33 252 -100 420 -201 330 -199 548 -273 775
-262 125 6 186 25 303 96 139 84 264 121 406 121 201 0 383 -117 474 -305 51
-104 67 -178 67 -315 0 -127 -21 -235 -66 -342 -70 -168 -235 -345 -388 -417
-109 -52 -176 -65 -341 -66 -203 0 -305 27 -446 121 -125 83 -200 178 -434
549 -49 77 -112 172 -140 210 -83 112 -240 264 -344 334 -182 121 -260 149
-441 157 -138 7 -275 -17 -406 -71 -191 -79 -308 -175 -459 -375 -158 -210
-273 -298 -462 -352 -122 -35 -305 -31 -483 10 -177 40 -278 73 -430 137 -210
88 -216 90 -322 90 -66 0 -98 4 -98 11 0 6 17 14 38 18 88 14 158 3 277 -47
33 -14 103 -43 156 -65 281 -116 509 -169 689 -159 252 13 423 122 626 397
138 188 267 295 443 370 140 60 210 73 381 74 143 0 162 -2 238 -28 155 -51
313 -159 468 -318 107 -110 184 -216 309 -423 183 -303 293 -439 419 -514 125
-75 325 -112 493 -92 193 24 315 83 448 216 148 148 209 263 236 446 15 108 6
284 -19 366 -64 204 -256 335 -492 335 -140 0 -242 -32 -394 -124 -107 -65
-159 -79 -301 -85 -249 -10 -456 61 -800 277 -216 135 -340 188 -507 215 -97
16 -286 19 -375 6 -62 -9 -70 1 -15 17 59 19 87 20 252 17 132 -2 168 -7 245
-29z m-4149 -25 c-9 -16 -16 -40 -16 -53 0 -13 -5 -30 -10 -38 -7 -11 -10 -2
-10 33 0 34 7 58 22 80 26 36 36 21 14 -22z m-251 -27 c4 -38 3 -55 -4 -49 -8
8 -15 76 -12 109 3 25 11 -7 16 -60z m3820 26 c-27 -12 -43 -12 -25 0 8 5 22
9 30 9 10 0 8 -3 -5 -9z m-3078 -23 c42 -22 76 -73 77 -114 1 -33 9 -42 21
-23 12 20 57 10 86 -19 24 -25 29 -37 29 -80 0 -48 -2 -53 -40 -80 -118 -85
-294 -52 -377 72 -64 96 -67 175 -7 235 34 34 35 35 107 30 40 -3 86 -12 104
-21z m2098 -7 c10 -11 16 -20 13 -20 -3 0 -13 9 -23 20 -10 11 -16 20 -13 20
3 0 13 -9 23 -20z m925 16 c0 -3 -4 -8 -10 -11 -5 -3 -10 -1 -10 4 0 6 5 11
10 11 6 0 10 -2 10 -4z m-776 -22 c3 -8 2 -12 -4 -9 -6 3 -10 10 -10 16 0 14
7 11 14 -7z m1241 -4 l30 -20 -45 1 c-25 0 -54 4 -65 8 -19 8 -19 8 0 19 28
16 46 15 80 -8z m-4948 -49 c61 -49 482 -151 621 -151 17 0 33 -4 36 -9 9 -13
-42 -159 -76 -219 -20 -35 -35 -51 -44 -48 -8 3 -101 64 -207 135 -197 133
-359 263 -365 294 -4 22 4 21 35 -2z m-116 -132 c-44 -174 -43 -352 3 -638 l4
-24 -112 6 c-82 4 -133 12 -195 32 l-83 27 7 46 c3 26 13 57 22 70 8 13 12 30
9 38 -3 8 -2 13 3 10 10 -6 76 113 67 121 -14 14 -126 -211 -126 -255 0 -6 -3
-12 -7 -12 -28 1 -212 113 -213 131 0 4 165 164 370 356 101 95 274 235 278
224 2 -5 -11 -65 -27 -132z m4459 137 c0 -2 -12 -11 -27 -20 l-28 -17 24 20
c23 21 31 25 31 17z m-4577 -84 c-54 -43 -179 -155 -278 -248 -99 -93 -199
-183 -221 -201 l-41 -32 -30 32 c-54 56 -112 158 -138 240 -14 44 -22 84 -18
88 9 9 202 75 282 96 31 8 80 21 108 28 29 8 104 21 165 30 62 9 140 22 173
29 100 23 100 19 -2 -62z m391 -121 c50 -37 146 -105 213 -150 67 -46 129 -91
139 -102 17 -19 16 -21 -17 -55 -50 -52 -148 -128 -197 -153 -24 -12 -45 -21
-46 -19 -1 2 -12 23 -25 48 -13 25 -46 77 -74 115 -99 137 -181 328 -203 475
l-7 44 63 -67 c35 -38 104 -99 154 -136z m3926 -30 c-279 -280 -414 -369 -655
-432 -76 -20 -114 -24 -240 -24 -129 0 -161 3 -225 23 -130 41 -219 89 -285
156 -57 57 -122 152 -112 162 2 2 29 -28 60 -68 78 -102 180 -177 295 -217
242 -83 602 -27 834 130 35 24 135 113 223 200 155 152 283 268 296 269 4 0
-82 -89 -191 -199z m-4110 -1 c27 -82 88 -205 132 -266 81 -115 98 -141 110
-168 10 -25 9 -30 -8 -43 -27 -20 -165 -62 -227 -69 l-53 -6 -12 48 c-45 184
-53 410 -21 562 28 132 30 135 44 67 7 -33 23 -89 35 -125z m-760 159 c167 2
173 -7 28 -38 -54 -12 -121 -30 -150 -41 -28 -10 -55 -17 -60 -14 -4 3 -8 28
-8 55 0 48 1 50 23 43 12 -4 87 -7 167 -5z m5750 -199 c0 -16 -7 -20 -33 -20
-21 0 -36 7 -45 20 -11 19 -10 20 33 20 38 0 45 -3 45 -20z m2156 -91 c10 -16
-9 -25 -100 -44 -119 -25 -128 -38 -21 -29 152 12 169 11 173 -9 2 -10 -4 -27
-14 -38 -15 -17 -15 -19 -1 -19 22 0 50 -56 43 -85 -5 -21 -3 -23 27 -21 27 1
32 -3 35 -25 2 -15 -5 -32 -17 -43 -19 -17 -19 -18 0 -37 10 -10 19 -32 19
-49 0 -38 -33 -60 -86 -59 -21 1 -61 -3 -89 -9 l-50 -11 54 2 c54 2 55 2 63
-32 13 -49 2 -79 -35 -96 -29 -14 -30 -15 -5 -10 24 5 28 2 34 -30 9 -50 -9
-69 -58 -61 -36 6 -51 -5 -28 -19 13 -8 13 -42 0 -50 -24 -15 -102 9 -166 51
-37 24 -72 44 -79 44 -16 0 -73 58 -91 92 -15 28 -28 39 -18 15 8 -21 -58 -84
-104 -97 -33 -11 -44 -10 -57 0 -28 23 -16 71 46 197 54 108 62 132 67 195 2
40 11 85 19 101 16 31 88 87 113 87 9 0 35 14 57 30 23 17 66 39 95 50 59 21
163 26 174 9z m-1690 -59 c24 -17 44 -33 44 -35 0 -2 3 -10 6 -19 10 -26 -10
-18 -65 25 -77 62 -66 84 15 29z m-3978 -76 c143 -29 343 -99 492 -174 120
-60 153 -81 142 -92 -5 -5 -64 20 -145 62 -194 101 -414 173 -585 190 -152 16
-281 -8 -479 -88 -29 -12 -53 -20 -53 -17 0 13 194 95 260 110 41 9 80 18 85
20 30 10 217 3 283 -11z m3757 -28 c156 -42 304 -128 413 -239 l63 -63 -168
-131 c-92 -71 -220 -174 -283 -227 -63 -53 -125 -99 -138 -102 -16 -5 -30 1
-50 22 -18 18 -21 25 -9 21 17 -6 24 7 8 17 -10 6 1 81 25 168 28 100 69 193
145 326 39 68 68 127 64 130 -12 12 -74 -87 -153 -243 -58 -116 -89 -209 -104
-317 l-12 -88 -43 0 c-23 0 -45 -5 -49 -11 -4 -7 -18 3 -36 25 -45 54 -65 46
-23 -10 19 -25 35 -50 35 -55 0 -19 -54 -7 -140 32 -95 42 -227 76 -425 109
-141 24 -174 25 -157 8 6 -6 69 -20 139 -30 70 -10 175 -30 233 -44 102 -25
305 -98 325 -116 6 -6 -35 -7 -105 -3 -68 4 -157 2 -220 -5 -169 -19 -430
-113 -430 -155 0 -17 19 -11 70 20 37 23 165 77 190 80 8 1 22 5 30 9 40 17
125 29 215 31 l100 3 -86 -8 c-152 -14 -327 -66 -458 -135 -60 -32 -65 -33
-77 -17 -31 43 -40 180 -20 299 29 165 66 256 150 370 128 175 298 285 516
334 107 24 369 21 465 -5z m1373 -42 c-7 -27 -17 -52 -23 -56 -6 -5 -6 -8 2
-8 9 0 10 -7 3 -25 -5 -14 -6 -25 -2 -25 4 0 1 -4 -6 -9 -7 -4 -14 -26 -15
-49 -1 -23 -5 -42 -9 -42 -4 0 -8 -10 -8 -21 0 -18 2 -20 15 -9 11 9 7 -12
-14 -70 -17 -46 -32 -85 -34 -87 -2 -2 -10 3 -17 12 -10 12 -8 24 10 68 29 65
36 96 55 224 12 88 38 163 52 150 2 -3 -2 -26 -9 -53z m1266 -45 c-10 -23 -19
-38 -21 -32 -5 14 25 88 33 81 2 -3 -3 -25 -12 -49z m-4024 -19 c-19 -17 -54
-43 -77 -59 -23 -15 -39 -31 -35 -35 3 -4 -2 -4 -12 0 -12 5 -17 4 -13 -2 8
-14 -36 -38 -117 -63 -77 -24 -207 -28 -253 -9 -25 11 -16 13 82 18 158 9 275
52 410 150 52 38 60 38 15 0z m-1579 -87 c32 -27 89 -133 89 -165 0 -13 14 -9
77 23 55 29 86 39 112 37 32 -3 36 -7 49 -48 15 -52 21 -192 9 -232 l-7 -28
58 0 c104 0 252 -51 252 -88 0 -23 -57 -106 -109 -160 -42 -43 -148 -102 -186
-102 -14 -1 -9 -7 18 -21 33 -17 46 -35 83 -113 52 -110 56 -151 18 -160 -47
-12 -189 -8 -232 7 -61 21 -141 76 -157 108 -25 48 -20 65 28 78 23 7 68 28
100 48 42 25 65 33 83 29 14 -4 24 -2 24 4 0 5 -7 10 -15 10 -25 0 -17 19 11
26 19 5 22 9 12 15 -10 6 -4 16 25 39 20 18 51 51 67 75 35 51 41 73 8 29 -44
-58 -206 -203 -254 -227 -95 -47 -158 -55 -254 -33 -15 4 -9 -2 15 -14 22 -11
57 -20 79 -20 l39 0 -5 -77 c-5 -87 -24 -132 -84 -202 -38 -44 -109 -101 -126
-101 -15 0 -67 122 -77 180 -5 30 -12 93 -15 138 l-6 84 48 -6 c26 -4 61 -2
77 3 27 8 24 9 -26 10 -31 1 -81 10 -112 20 -63 22 -73 20 -27 -4 28 -14 30
-20 30 -70 0 -66 -14 -78 -106 -94 -62 -11 -99 -9 -186 10 -43 10 -48 14 -48
37 0 31 30 99 61 143 18 26 27 29 77 31 39 1 46 2 22 5 -101 11 -260 136 -319
250 -18 34 -14 39 42 61 78 31 126 42 185 42 l52 0 0 48 c1 139 40 282 77 282
22 0 138 -54 147 -69 4 -6 16 -15 26 -21 16 -9 23 -2 51 48 40 69 125 162 150
162 9 0 32 -12 50 -27z m-821 -67 c66 -14 217 -70 234 -87 26 -24 -13 -19 -92
13 -48 20 -115 42 -150 48 -61 12 -175 9 -217 -6 -14 -5 -17 -4 -10 4 16 16
96 41 135 41 19 1 64 -6 100 -13z m-13 -103 c6 -16 -26 -24 -48 -12 -16 8 -18
13 -9 24 12 15 51 6 57 -12z m4323 -5 c91 -147 130 -282 130 -448 0 -139 -11
-213 -46 -305 -4 -11 -6 -24 -5 -30 2 -5 -1 -7 -5 -3 -4 4 -33 -33 -66 -82
-32 -50 -63 -90 -68 -90 -15 0 -155 113 -240 194 -42 39 -121 111 -178 160
-56 49 -100 91 -98 93 7 8 63 -25 131 -77 88 -66 182 -116 139 -73 -72 72
-268 193 -312 193 -7 0 -12 4 -12 9 0 15 231 219 360 318 201 155 225 172 238
172 7 1 21 -14 32 -31z m-5169 -264 c235 -43 384 -113 589 -274 142 -112 234
-166 340 -201 64 -21 37 -25 -31 -5 -82 25 -162 72 -304 181 -208 157 -365
228 -602 270 -120 20 -232 19 -358 -5 -215 -42 -370 -114 -466 -217 -67 -73
-89 -135 -89 -254 0 -116 22 -208 75 -318 56 -115 113 -197 193 -275 145 -142
293 -195 545 -197 160 -1 208 -13 87 -22 -225 -18 -324 -5 -459 58 -182 87
-347 282 -430 510 -83 230 -57 413 78 537 125 115 272 171 571 221 59 10 184
6 261 -9z m-265 -129 c17 -25 16 -86 -1 -129 -6 -13 5 -9 41 17 27 19 68 43
92 52 39 16 44 16 67 1 22 -15 25 -23 25 -80 0 -59 2 -64 19 -59 28 7 71 -38
64 -66 -5 -18 -1 -21 26 -21 27 0 31 -3 31 -27 0 -42 -39 -103 -90 -142 -46
-34 -41 -37 28 -16 60 19 -14 -84 -95 -132 -24 -14 -42 -28 -39 -30 3 -3 21 5
41 17 35 21 37 22 33 4 -5 -25 -118 -89 -193 -109 -78 -20 -183 -18 -270 4
-62 16 -72 17 -92 4 -27 -18 -46 -8 -37 19 4 13 -7 49 -32 102 -38 79 -39 84
-39 191 0 100 3 116 28 170 30 64 62 105 83 105 9 0 8 -17 -7 -67 -11 -38 -22
-81 -25 -98 -5 -26 -3 -25 14 11 24 50 149 219 188 255 62 57 113 65 140 24z
m4725 -1 c9 -2 22 -16 30 -30 12 -24 12 -28 -10 -45 -13 -10 -36 -19 -51 -19
-23 0 -32 8 -50 45 -12 24 -19 49 -15 55 6 10 48 7 96 -6z m-1289 -37 c42 -20
100 -57 130 -81 54 -45 124 -124 116 -132 -2 -2 -30 21 -61 51 -70 68 -161
128 -230 152 -68 24 -217 23 -307 -1 -93 -25 -234 -96 -312 -158 -37 -29 -93
-73 -123 -97 -95 -75 -71 -37 32 51 54 46 114 95 133 109 69 51 215 115 325
143 11 2 65 4 121 3 94 -2 106 -5 176 -40z m-4302 -8 c-6 -18 -10 -56 -10 -83
0 -40 -2 -47 -12 -37 -18 17 -14 90 6 129 21 42 29 37 16 -9z m1395 11 c8 -12
-52 -12 -80 0 -15 6 -8 9 27 9 26 1 50 -3 53 -9z m4094 -69 c14 -9 -16 -32
-89 -71 -86 -46 -337 -253 -486 -401 l-61 -61 -30 39 c-43 54 -93 155 -93 188
0 61 144 157 317 213 104 33 374 100 408 101 11 0 26 -3 34 -8z m198 -14 c40
-29 139 -122 347 -324 l169 -164 -34 -35 c-19 -20 -58 -51 -88 -71 -69 -46
-221 -107 -225 -90 -2 7 -8 28 -14 47 -6 19 -23 76 -38 125 -31 104 -33 110
-45 98 -6 -6 5 -65 26 -147 19 -76 33 -141 31 -145 -5 -7 -77 -25 -136 -35
-14 -2 8 -4 48 -3 43 0 72 4 72 10 0 6 6 2 14 -9 14 -18 12 -20 -27 -32 -59
-19 -327 -29 -327 -12 0 7 6 10 14 7 28 -11 34 19 42 181 6 138 5 162 -8 162
-11 0 -23 -45 -49 -176 l-34 -175 -55 6 c-65 8 -171 42 -257 83 l-62 29 23 34
c13 19 42 66 66 104 24 39 58 94 77 123 19 30 33 56 30 58 -9 10 -65 -58 -136
-166 -42 -63 -79 -119 -83 -124 -4 -6 -29 5 -62 28 -86 59 -86 57 -25 128 53
62 165 172 224 220 77 62 210 161 262 195 32 20 61 41 65 47 4 6 22 9 40 8 20
-1 45 5 63 17 40 26 55 25 92 -2z m-1518 -199 c40 -23 151 -127 151 -141 0 -5
-26 14 -58 42 -72 63 -132 90 -198 91 -76 0 -134 -25 -236 -101 -101 -75 -237
-150 -306 -169 -24 -6 -50 -14 -59 -17 -10 -4 -14 -2 -10 4 4 6 37 25 73 42
85 40 168 90 269 161 87 62 153 99 200 111 46 12 135 1 174 -23z m470 -135
c52 -124 94 -195 169 -286 112 -135 109 -131 87 -120 -23 13 -101 94 -157 163
-46 57 -91 148 -134 269 -57 160 -36 144 35 -26z m-2482 81 c-3 -3 -12 -4 -19
-1 -8 3 -5 6 6 6 11 1 17 -2 13 -5z m1252 -17 c-2 -2 -17 -11 -34 -22 l-30
-18 19 21 c11 12 26 22 34 22 9 0 13 -1 11 -3z m4740 -109 c-48 -69 -101 -126
-189 -203 -52 -46 -117 -115 -151 -162 -33 -45 -76 -95 -97 -111 -92 -73 -218
-125 -332 -137 -77 -9 -75 1 7 21 75 19 244 102 306 149 54 41 107 109 107
136 0 16 -4 17 -26 9 -14 -6 -45 -23 -68 -39 -72 -50 -237 -128 -326 -154
-145 -44 -199 -50 -363 -44 -200 7 -316 -6 -526 -59 -157 -41 -397 -82 -408
-71 -2 3 31 12 74 21 43 10 146 36 228 58 331 90 318 88 595 98 367 12 366 12
800 236 148 77 280 171 343 246 45 54 62 57 26 6z m-1836 -28 c-5 -19 -23 -39
-23 -25 0 9 20 45 24 45 2 0 2 -9 -1 -20z m-3783 -140 c-34 -11 -60 -11 -35 0
11 5 29 8 40 8 16 0 15 -2 -5 -8z m-121 -31 c-77 -22 -87 -23 -71 -7 16 16 91
35 116 29 13 -3 -4 -11 -45 -22z m5061 16 c0 -8 -7 -15 -15 -15 -8 0 -15 7
-15 15 0 8 7 15 15 15 8 0 15 -7 15 -15z m-5170 -45 c-36 -11 -50 -11 -50 0 0
6 17 10 38 9 33 -1 34 -2 12 -9z m-70 -10 c0 -5 -10 -10 -22 -10 -19 0 -20 2
-8 10 19 13 30 13 30 0z m-82 -7 c-10 -2 -26 -2 -35 0 -10 3 -2 5 17 5 19 0
27 -2 18 -5z m3346 -66 c-4 -26 -11 -44 -15 -41 -8 5 -6 27 8 77 9 34 13 11 7
-36z m-2356 10 c-49 -40 -343 -218 -313 -190 18 17 170 121 246 168 77 48 112
59 67 22z m2918 15 c-7 -12 -125 -71 -164 -82 -25 -7 -32 -6 -29 3 2 6 17 14
33 18 16 3 56 20 89 36 65 33 79 38 71 25z m-1509 -42 c5 0 14 -10 22 -22 11
-18 7 -17 -18 6 -17 17 -31 37 -30 45 0 10 4 8 9 -6 5 -13 13 -23 17 -23z m91
-81 c47 -42 35 -45 -13 -4 -22 19 -35 34 -30 34 6 0 25 -13 43 -30z m-2607
-84 c-1 -15 -24 -12 -29 3 -3 9 2 13 12 10 10 -1 17 -7 17 -13z m-431 -63 c69
-19 156 -43 194 -53 190 -52 372 -59 605 -24 57 8 106 14 108 11 6 -5 -153
-42 -250 -57 -101 -15 -304 -6 -417 20 -47 11 -148 39 -225 64 -77 25 -159 48
-182 52 -25 4 -43 12 -43 20 0 19 58 10 210 -33z m3590 -62 c25 -13 83 -38
130 -56 90 -35 83 -44 -13 -19 -82 21 -166 66 -223 120 l-49 46 55 -34 c30
-19 75 -45 100 -57z m-770 -30 c8 -5 17 -8 20 -8 23 -2 100 -28 100 -34 0 -11
-8 -11 -146 14 -111 19 -129 20 -181 8 -71 -17 -62 -14 -98 -30 -40 -17 -164
-24 -195 -12 -22 9 -18 11 30 13 30 1 61 2 68 2 6 -1 12 3 12 7 0 4 12 10 28
12 15 3 36 9 46 13 14 6 17 5 12 -3 -4 -7 -1 -12 8 -12 8 0 16 5 18 11 6 19
146 30 208 16 33 -8 34 -7 15 8 -19 16 -19 16 10 9 17 -4 37 -10 45 -14z
m-860 -68 c0 -10 -279 -82 -319 -82 -43 0 -39 17 7 29 216 57 312 73 312 53z"/>
<path d="M4415 4800 c-3 -5 1 -10 9 -10 9 0 16 5 16 10 0 6 -4 10 -9 10 -6 0
-13 -4 -16 -10z"/>
<path d="M4426 4753 c7 -39 14 -42 14 -5 0 18 -4 32 -9 32 -5 0 -7 -12 -5 -27z"/>
<path d="M4870 4716 c0 -8 4 -17 9 -20 11 -7 33 18 24 27 -12 12 -33 7 -33 -7z"/>
<path d="M3936 4625 c-11 -8 -17 -17 -14 -21 7 -6 48 17 48 28 0 12 -13 9 -34
-7z"/>
<path d="M3762 4447 l-21 -22 30 -17 29 -17 -15 29 c-14 26 -13 30 3 39 9 6
12 11 6 11 -6 0 -20 -10 -32 -23z"/>
<path d="M4700 4359 c0 -11 5 -17 10 -14 6 3 10 13 10 21 0 8 -4 14 -10 14 -5
0 -10 -9 -10 -21z"/>
<path d="M5033 4249 c-12 -4 -26 -17 -32 -27 -9 -17 -8 -19 9 -15 19 5 56 40
49 47 -2 2 -14 0 -26 -5z"/>
<path d="M3605 4200 c-8 -13 5 -13 25 0 13 8 13 10 -2 10 -9 0 -20 -4 -23 -10z"/>
<path d="M4924 4179 c-19 -22 -19 -22 4 -10 12 6 22 16 22 21 0 15 -5 12 -26
-11z"/>
<path d="M5351 4166 c9 -9 69 -14 69 -5 0 5 -16 9 -37 9 -20 0 -34 -2 -32 -4z"/>
<path d="M5323 4143 c9 -2 23 -2 30 0 6 3 -1 5 -18 5 -16 0 -22 -2 -12 -5z"/>
<path d="M3942 3714 c-31 -24 -82 -94 -82 -111 0 -4 14 12 30 35 17 22 50 55
72 72 23 16 35 30 27 30 -7 0 -29 -12 -47 -26z"/>
<path d="M3677 3429 c7 -9 10 -19 6 -22 -3 -4 -1 -7 5 -7 17 0 15 16 -5 31
-16 12 -17 12 -6 -2z"/>
<path d="M7700 4730 c0 -11 5 -20 10 -20 6 0 10 9 10 20 0 11 -4 20 -10 20 -5
0 -10 -9 -10 -20z"/>
<path d="M7402 4715 c6 -14 13 -23 16 -21 7 7 -9 46 -18 46 -5 0 -4 -11 2 -25z"/>
<path d="M7421 4675 c1 -19 18 -51 18 -35 0 8 -4 22 -9 30 -5 8 -9 11 -9 5z"/>
<path d="M7450 4585 c0 -5 5 -17 10 -25 5 -8 10 -10 10 -5 0 6 -5 17 -10 25
-5 8 -10 11 -10 5z"/>
<path d="M7230 4515 c13 -14 26 -25 28 -25 3 0 -5 11 -18 25 -13 14 -26 25
-28 25 -3 0 5 -11 18 -25z"/>
<path d="M7290 4466 c0 -2 8 -10 18 -17 15 -13 16 -12 3 4 -13 16 -21 21 -21
13z"/>
<path d="M6610 4008 c-47 -33 -110 -74 -140 -91 -41 -24 -50 -33 -36 -35 10
-2 23 3 28 12 5 9 14 14 19 10 6 -3 20 2 32 13 32 28 102 73 113 73 5 0 15 9
22 20 7 12 24 25 37 30 14 5 25 14 25 20 0 16 -11 11 -100 -52z"/>
<path d="M7332 3985 c-57 -29 -158 -72 -225 -95 -163 -58 -287 -112 -287 -127
0 -17 3 -17 58 11 26 13 103 44 172 70 138 52 361 158 380 181 16 19 23 22
-98 -40z"/>
<path d="M6635 3900 c-11 -4 -36 -22 -55 -40 l-35 -31 33 18 c32 17 92 63 82
62 -3 0 -14 -4 -25 -9z"/>
<path d="M6489 3873 c-13 -17 -13 -17 6 -3 11 8 22 16 24 17 2 2 0 3 -6 3 -6
0 -17 -8 -24 -17z"/>
<path d="M9305 3921 c-3 -5 -1 -12 5 -16 5 -3 10 1 10 9 0 18 -6 21 -15 7z"/>
<path d="M8125 3960 c4 -6 11 -8 16 -5 14 9 11 15 -7 15 -8 0 -12 -5 -9 -10z"/>
<path d="M7746 3343 c8 -35 10 -37 24 -28 9 6 9 10 -1 17 -11 7 -11 11 -1 15
19 8 14 23 -8 23 -17 0 -19 -4 -14 -27z"/>
<path d="M5199 3133 c-13 -16 -12 -17 4 -4 16 13 21 21 13 21 -2 0 -10 -8 -17
-17z"/>
<path d="M9142 3450 c0 -14 2 -19 5 -12 2 6 2 18 0 25 -3 6 -5 1 -5 -13z"/>
<path d="M9151 3410 c0 -8 4 -22 9 -30 12 -18 12 -2 0 25 -6 13 -9 15 -9 5z"/>
<path d="M9165 3350 c3 -5 8 -10 11 -10 2 0 4 5 4 10 0 6 -5 10 -11 10 -5 0
-7 -4 -4 -10z"/>
<path d="M2228 3043 c7 -3 16 -2 19 1 4 3 -2 6 -13 5 -11 0 -14 -3 -6 -6z"/>
<path d="M1332 2858 c-14 -14 -16 -28 -3 -28 9 0 24 30 18 36 -2 2 -9 -2 -15
-8z"/>
<path d="M1770 2883 c0 -6 8 -17 18 -24 16 -13 16 -13 2 6 -8 11 -16 22 -17
24 -2 2 -3 0 -3 -6z"/>
<path d="M2062 2689 c-18 -16 -26 -29 -19 -29 14 0 63 47 56 54 -2 2 -19 -9
-37 -25z"/>
<path d="M1974 2628 l-19 -21 30 18 c41 26 40 25 23 25 -8 0 -23 -10 -34 -22z"/>
<path d="M8480 2255 c13 -14 26 -25 28 -25 3 0 -5 11 -18 25 -13 14 -26 25
-28 25 -3 0 5 -11 18 -25z"/>
<path d="M6545 2649 c-10 -15 3 -25 16 -12 7 7 7 13 1 17 -6 3 -14 1 -17 -5z"/>
<path d="M6370 2310 c0 -16 35 -88 51 -105 14 -14 -12 55 -33 90 -10 17 -18
23 -18 15z"/>
<path d="M8163 2383 c-3 -10 -8 -22 -11 -27 -3 -5 0 -6 5 -3 11 7 25 47 17 47
-3 0 -7 -8 -11 -17z"/>
<path d="M3836 2050 c3 -76 4 -77 15 -57 11 19 4 87 -9 87 -4 0 -6 -13 -6 -30z"/>
<path d="M3750 2026 c0 -25 5 -46 10 -46 6 0 10 18 10 39 0 22 -4 43 -10 46
-6 4 -10 -12 -10 -39z"/>
<path d="M3671 2044 c0 -11 3 -14 6 -6 3 7 2 16 -1 19 -3 4 -6 -2 -5 -13z"/>
<path d="M3798 2054 c-4 -7 -4 -33 1 -59 7 -36 6 -48 -5 -52 -8 -3 -14 -14
-14 -25 0 -13 -6 -18 -17 -16 -13 2 -19 14 -21 41 -5 64 -22 40 -22 -32 0 -73
6 -84 53 -95 l27 -6 0 63 c0 35 4 67 9 73 4 5 5 34 2 64 -3 30 -9 50 -13 44z
m-18 -200 c0 -33 -33 -30 -38 4 -3 17 2 22 17 22 16 0 21 -6 21 -26z"/>
<path d="M3870 2043 c0 -10 5 -25 10 -33 7 -11 10 -7 10 18 0 17 -4 32 -10 32
-5 0 -10 -8 -10 -17z"/>
<path d="M4215 2040 c-12 -4 -27 -15 -34 -24 -11 -14 -11 -16 3 -16 9 0 19 7
22 15 4 8 12 15 19 15 8 0 17 5 20 10 7 12 -2 12 -30 0z"/>
<path d="M3682 1975 c0 -16 2 -22 5 -12 2 9 2 23 0 30 -3 6 -5 -1 -5 -18z"/>
<path d="M3901 1977 c-1 -10 -5 -15 -11 -12 -5 3 -10 -1 -10 -9 0 -9 5 -16 10
-16 14 0 23 25 17 42 -3 8 -6 6 -6 -5z"/>
<path d="M3926 1937 c-5 -32 -6 -60 -3 -63 5 -5 87 45 87 53 0 3 -16 -5 -34
-17 l-35 -21 -3 53 -3 53 -9 -58z"/>
<path d="M3850 1965 c0 -5 5 -17 10 -25 5 -8 10 -10 10 -5 0 6 -5 17 -10 25
-5 8 -10 11 -10 5z"/>
<path d="M3750 1950 c0 -5 5 -10 10 -10 6 0 10 5 10 10 0 6 -4 10 -10 10 -5 0
-10 -4 -10 -10z"/>
<path d="M3476 1893 c14 -22 22 -43 18 -52 -12 -30 -16 -59 -7 -64 4 -3 8 8 9
24 2 42 10 46 44 21 45 -33 110 -67 160 -82 25 -7 51 -18 58 -23 9 -7 11 -6 7
5 -3 8 -25 21 -48 28 -67 20 -107 44 -189 114 -68 58 -75 62 -52 29z"/>
<path d="M3882 1921 c-11 -7 -11 -16 -1 -50 14 -49 34 -56 23 -8 -4 17 -8 40
-8 50 0 9 0 17 -1 17 0 0 -6 -4 -13 -9z"/>
<path d="M3832 1870 c-2 -52 -1 -55 24 -56 23 -2 24 -1 10 15 -9 10 -16 26
-17 37 0 10 -4 28 -8 39 -6 14 -9 3 -9 -35z"/>
<path d="M4314 1834 c-18 -14 -18 -15 4 -4 12 6 22 13 22 15 0 8 -5 6 -26 -11z"/>
<path d="M4270 1810 c-9 -6 -10 -10 -3 -10 6 0 15 5 18 10 8 12 4 12 -15 0z"/>
<path d="M4240 1702 c0 -5 10 -17 22 -28 l21 -19 -18 28 c-18 28 -25 33 -25
19z"/>
<path d="M1783 1605 c-6 -14 -7 -23 -2 -19 13 8 31 44 22 44 -4 0 -13 -11 -20
-25z"/>
<path d="M1846 1605 c-11 -8 -17 -17 -14 -20 2 -3 13 4 23 15 21 23 18 25 -9
5z"/>
<path d="M1879 1562 c-14 -9 -41 -29 -59 -44 -34 -27 -34 -28 -15 -42 11 -9
31 -15 45 -15 l25 1 -25 7 c-24 7 -23 8 11 14 21 4 42 14 49 22 14 17 9 18
-42 6 -49 -12 -48 2 2 30 22 13 40 26 40 31 0 10 0 10 -31 -10z"/>
<path d="M1762 1527 c-27 -29 -28 -41 -3 -28 10 6 21 20 24 31 7 25 5 25 -21
-3z"/>
<path d="M1709 1463 c-13 -16 -12 -17 4 -4 9 7 17 15 17 17 0 8 -8 3 -21 -13z"/>
<path d="M1632 1385 c0 -16 2 -22 5 -12 2 9 2 23 0 30 -3 6 -5 -1 -5 -18z"/>
<path d="M2070 1309 c-14 -6 -50 -14 -80 -19 l-55 -9 55 3 c31 2 71 11 90 19
39 17 30 22 -10 6z"/>
<path d="M1838 1283 c6 -2 18 -2 25 0 6 3 1 5 -13 5 -14 0 -19 -2 -12 -5z"/>
<path d="M6255 1704 c-73 -47 -125 -92 -125 -106 0 -5 32 16 72 47 40 31 89
66 110 76 21 11 38 22 38 24 0 14 -33 0 -95 -41z"/>
<path d="M7120 1353 c0 -18 32 -53 42 -47 7 5 9 0 6 -14 -8 -28 8 -29 22 -2 8
16 8 20 -4 20 -8 0 -19 6 -23 13 -12 18 -43 41 -43 30z"/>
<path d="M1108 5843 c7 -3 16 -2 19 1 4 3 -2 6 -13 5 -11 0 -14 -3 -6 -6z"/>
<path d="M1178 5833 c6 -2 18 -2 25 0 6 3 1 5 -13 5 -14 0 -19 -2 -12 -5z"/>
<path d="M6519 5719 c-152 -114 -293 -177 -450 -200 -75 -11 -162 -8 -217 7
l-23 7 23 -38 c82 -140 168 -156 355 -70 40 19 73 29 73 24 0 -6 5 -7 10 -4 6
3 10 4 10 1 0 -11 -121 -66 -182 -83 -35 -9 -64 -17 -65 -18 -2 -1 4 -23 13
-49 16 -48 17 -48 53 -42 20 3 108 41 197 85 223 110 362 207 348 241 -4 8 -8
43 -9 77 -3 63 -21 133 -34 133 -4 0 -50 -32 -102 -71z"/>
<path d="M9511 5593 c-1 -17 81 -235 86 -230 2 3 -17 58 -41 123 -25 66 -45
114 -45 107z"/>
<path d="M6639 5491 c-83 -64 -358 -217 -462 -256 l-49 -18 24 -19 c21 -16
161 -66 231 -82 44 -10 64 8 87 80 11 36 20 78 20 93 0 39 10 46 64 48 26 1
64 7 82 13 l34 12 0 74 c0 41 -2 74 -4 74 -2 0 -14 -8 -27 -19z"/>
<path d="M2210 5467 c0 -13 75 -127 84 -127 5 0 2 8 -7 18 -10 10 -17 24 -17
30 0 7 -5 12 -12 12 -6 0 -9 3 -5 6 3 3 1 11 -4 18 -5 6 -16 20 -24 31 -8 11
-15 17 -15 12z"/>
<path d="M4890 5466 c0 -2 11 -6 25 -8 13 -3 22 -1 19 3 -5 9 -44 13 -44 5z"/>
<path d="M7170 5420 c-13 -8 -12 -10 3 -10 9 0 17 5 17 10 0 12 -1 12 -20 0z"/>
<path d="M7105 5390 c-3 -6 1 -7 9 -4 18 7 21 14 7 14 -6 0 -13 -4 -16 -10z"/>
<path d="M7035 5360 c-3 -6 1 -7 9 -4 18 7 21 14 7 14 -6 0 -13 -4 -16 -10z"/>
<path d="M9601 5334 c0 -11 3 -14 6 -6 3 7 2 16 -1 19 -3 4 -6 -2 -5 -13z"/>
<path d="M8162 5325 c0 -11 3 -29 8 -40 11 -25 11 1 0 35 -6 20 -8 21 -8 5z"/>
<path d="M7744 5294 c-18 -14 -18 -15 4 -4 12 6 22 13 22 15 0 8 -5 6 -26 -11z"/>
<path d="M9612 5295 c0 -11 4 -31 8 -45 6 -20 8 -21 8 -5 0 11 -4 31 -8 45 -6
20 -8 21 -8 5z"/>
<path d="M6935 5290 c-3 -5 -2 -10 4 -10 5 0 13 5 16 10 3 6 2 10 -4 10 -5 0
-13 -4 -16 -10z"/>
<path d="M2344 5253 c21 -40 56 -89 56 -81 0 14 -55 108 -63 108 -4 0 -1 -12
7 -27z"/>
<path d="M7689 5263 c-13 -17 -13 -17 6 -3 11 8 22 16 24 17 2 2 0 3 -6 3 -6
0 -17 -8 -24 -17z"/>
<path d="M3775 5264 c-103 -25 -153 -43 -236 -85 -170 -87 -272 -175 -427
-369 -185 -230 -277 -313 -417 -377 -132 -60 -221 -77 -400 -77 -166 0 -189 3
-400 64 -139 40 -272 69 -340 74 -39 3 -62 3 -52 0 20 -6 20 -9 8 -32 -8 -15
0 -17 82 -17 143 0 257 -16 257 -36 0 -5 12 -9 26 -9 15 0 57 -9 93 -19 36
-11 98 -24 136 -31 39 -6 83 -15 99 -20 18 -6 36 -6 47 0 9 6 66 10 126 10
128 0 162 3 187 17 10 6 27 8 37 6 11 -3 19 -1 19 4 0 9 64 37 86 38 6 0 19 8
28 18 10 9 26 17 37 17 10 0 19 5 19 10 0 6 8 14 18 17 17 7 56 39 98 81 13
13 28 21 34 17 6 -3 9 -2 8 4 -4 13 76 114 80 101 2 -6 8 -7 13 -4 6 4 6 10 0
18 -7 8 4 26 39 61 27 28 49 53 50 57 0 12 60 73 60 61 0 -6 -5 -14 -10 -16
-6 -3 -5 -4 2 -3 7 2 12 13 10 26 -2 20 1 21 25 16 21 -5 24 -4 13 4 -13 9
-13 10 0 10 12 0 12 2 2 8 -9 6 0 20 35 51 26 24 64 58 84 77 19 19 39 31 42
27 4 -3 7 -1 7 5 0 7 5 12 11 12 6 0 34 15 62 34 55 36 195 94 262 108 22 5
65 10 95 12 74 6 37 -9 -65 -24 -44 -7 -89 -18 -100 -26 -10 -8 -30 -14 -44
-14 -13 0 -22 -3 -19 -6 6 -5 -37 -53 -50 -55 -22 -3 -42 -21 -35 -32 4 -7 0
-6 -10 2 -10 8 -21 11 -24 7 -4 -4 -1 -11 7 -17 10 -6 12 -11 4 -16 -6 -5 -16
-19 -23 -33 l-12 -25 23 25 c64 70 165 132 258 159 32 9 327 44 347 40 4 -1
17 -1 28 1 11 1 -14 10 -55 20 -74 19 -247 34 -285 24z m199 -35 c-6 -11 -24
-2 -24 11 0 5 7 7 15 4 8 -4 12 -10 9 -15z m-44 1 c18 -12 2 -12 -25 0 -13 6
-15 9 -5 9 8 0 22 -4 30 -9z"/>
<path d="M8180 5255 c0 -5 5 -17 10 -25 5 -8 10 -10 10 -5 0 6 -5 17 -10 25
-5 8 -10 11 -10 5z"/>
<path d="M6845 5214 l-40 -36 43 32 c36 27 49 40 40 40 -2 0 -21 -16 -43 -36z"/>
<path d="M7645 5240 c-3 -6 1 -7 9 -4 18 7 21 14 7 14 -6 0 -13 -4 -16 -10z"/>
<path d="M4848 5233 c7 -3 16 -2 19 1 4 3 -2 6 -13 5 -11 0 -14 -3 -6 -6z"/>
<path d="M4890 5220 c8 -5 22 -9 30 -9 10 0 8 3 -5 9 -27 12 -43 12 -25 0z"/>
<path d="M9632 5200 c0 -14 2 -19 5 -12 2 6 2 18 0 25 -3 6 -5 1 -5 -13z"/>
<path d="M4678 5203 c7 -3 16 -2 19 1 4 3 -2 6 -13 5 -11 0 -14 -3 -6 -6z"/>
<path d="M4718 5203 c7 -3 16 -2 19 1 4 3 -2 6 -13 5 -11 0 -14 -3 -6 -6z"/>
<path d="M4303 5193 c26 -2 68 -2 95 0 26 2 4 3 -48 3 -52 0 -74 -1 -47 -3z"/>
<path d="M7533 5174 c-24 -14 -43 -27 -43 -30 0 -6 67 33 85 48 17 15 1 8 -42
-18z"/>
<path d="M9642 5150 c0 -14 2 -19 5 -12 2 6 2 18 0 25 -3 6 -5 1 -5 -13z"/>
<path d="M2410 5151 c0 -6 4 -13 10 -16 6 -3 7 1 4 9 -7 18 -14 21 -14 7z"/>
<path d="M6732 5136 c-46 -33 -53 -43 -14 -20 19 10 38 25 44 32 15 17 8 14
-30 -12z"/>
<path d="M7610 5149 c0 -5 5 -7 10 -4 6 3 10 8 10 11 0 2 -4 4 -10 4 -5 0 -10
-5 -10 -11z"/>
<path d="M7460 5130 c-9 -6 -10 -10 -3 -10 6 0 15 5 18 10 8 12 4 12 -15 0z"/>
<path d="M5055 5082 c44 -26 86 -51 93 -55 6 -5 12 -6 12 -3 0 7 -162 106
-175 106 -5 0 26 -21 70 -48z"/>
<path d="M2430 5116 c0 -2 8 -10 18 -17 15 -13 16 -12 3 4 -13 16 -21 21 -21
13z"/>
<path d="M6634 5074 c-18 -14 -18 -14 6 -3 31 14 36 19 24 19 -6 0 -19 -7 -30
-16z"/>
<path d="M7465 5070 c-3 -5 -2 -10 4 -10 5 0 13 5 16 10 3 6 2 10 -4 10 -5 0
-13 -4 -16 -10z"/>
<path d="M4548 5063 c17 -2 47 -2 65 0 17 2 3 4 -33 4 -36 0 -50 -2 -32 -4z"/>
<path d="M7328 5054 c-38 -20 -36 -28 2 -9 17 9 30 18 30 20 0 7 -1 6 -32 -11z"/>
<path d="M6439 5043 c-13 -15 -12 -15 11 -3 34 17 36 20 18 20 -9 0 -22 -7
-29 -17z"/>
<path d="M4358 5033 c7 -3 16 -2 19 1 4 3 -2 6 -13 5 -11 0 -14 -3 -6 -6z"/>
<path d="M5184 5005 c11 -8 25 -15 30 -15 6 0 2 7 -8 15 -11 8 -25 15 -30 15
-6 0 -2 -7 8 -15z"/>
<path d="M7354 5004 c-18 -14 -18 -14 6 -3 31 14 36 19 24 19 -6 0 -19 -7 -30
-16z"/>
<path d="M3429 4968 c-12 -23 -12 -23 10 -4 23 21 26 26 11 26 -5 0 -15 -10
-21 -22z"/>
<path d="M4160 4980 c-8 -5 -10 -10 -5 -10 6 0 17 5 25 10 8 5 11 10 5 10 -5
0 -17 -5 -25 -10z"/>
<path d="M5250 4971 c22 -18 60 -34 60 -26 0 2 -19 13 -42 24 -40 20 -41 20
-18 2z"/>
<path d="M7170 4975 c-14 -8 -20 -14 -15 -14 6 0 21 6 35 14 14 8 21 14 15 14
-5 0 -21 -6 -35 -14z"/>
<path d="M7280 4965 c-25 -13 -41 -24 -37 -25 11 0 87 39 87 45 0 7 0 7 -50
-20z"/>
<path d="M6400 4965 c-14 -8 -20 -14 -14 -15 5 0 19 7 30 15 24 18 16 19 -16
0z"/>
<path d="M7728 4963 c7 -3 16 -2 19 1 4 3 -2 6 -13 5 -11 0 -14 -3 -6 -6z"/>
<path d="M7100 4945 c-14 -8 -20 -14 -15 -14 6 0 21 6 35 14 14 8 21 14 15 14
-5 0 -21 -6 -35 -14z"/>
<path d="M7688 4953 c7 -3 16 -2 19 1 4 3 -2 6 -13 5 -11 0 -14 -3 -6 -6z"/>
<path d="M3489 4933 c-13 -17 -13 -17 6 -3 11 8 22 16 24 17 2 2 0 3 -6 3 -6
0 -17 -8 -24 -17z"/>
<path d="M4897 4939 c7 -7 15 -10 18 -7 3 3 -2 9 -12 12 -14 6 -15 5 -6 -5z"/>
<path d="M6985 4900 c-3 -6 1 -7 9 -4 18 7 21 14 7 14 -6 0 -13 -4 -16 -10z"/>
<path d="M5020 4876 c0 -2 7 -7 16 -10 8 -3 12 -2 9 4 -6 10 -25 14 -25 6z"/>
<path d="M7065 4870 c-3 -6 1 -7 9 -4 18 7 21 14 7 14 -6 0 -13 -4 -16 -10z"/>
<path d="M1135 4840 c49 -62 87 -97 180 -163 93 -66 98 -72 75 -79 -24 -7 -24
-8 3 -4 15 2 27 0 27 -3 0 -4 15 -12 33 -19 38 -14 41 -16 -98 87 -55 41 -131
104 -170 140 -38 36 -61 55 -50 41z"/>
<path d="M6998 4692 c-32 -20 -58 -40 -58 -44 0 -7 86 49 115 74 20 18 -3 6
-57 -30z"/>
<path d="M6590 4690 c-9 -6 -10 -10 -3 -10 6 0 15 5 18 10 8 12 4 12 -15 0z"/>
<path d="M8460 4686 c0 -2 9 -6 20 -9 11 -3 20 -1 20 4 0 5 -9 9 -20 9 -11 0
-20 -2 -20 -4z"/>
<path d="M6385 4665 c-25 -12 -26 -14 -5 -9 14 4 29 10 35 15 12 12 5 11 -30
-6z"/>
<path d="M6508 4653 c7 -3 16 -2 19 1 4 3 -2 6 -13 5 -11 0 -14 -3 -6 -6z"/>
<path d="M6320 4640 c-8 -5 -10 -10 -5 -10 6 0 17 5 25 10 8 5 11 10 5 10 -5
0 -17 -5 -25 -10z"/>
<path d="M6420 4620 c-19 -11 -30 -19 -25 -19 6 0 26 8 45 19 19 11 31 19 25
19 -5 0 -26 -8 -45 -19z"/>
<path d="M6860 4583 c-161 -135 -386 -259 -605 -332 -66 -23 -111 -41 -100
-41 37 0 276 89 360 134 122 66 240 142 320 205 38 31 76 61 85 68 8 6 13 13
10 16 -3 2 -34 -20 -70 -50z"/>
<path d="M6270 4620 c-8 -5 -10 -10 -5 -10 6 0 17 5 25 10 8 5 11 10 5 10 -5
0 -17 -5 -25 -10z"/>
<path d="M6128 4573 c7 -3 16 -2 19 1 4 3 -2 6 -13 5 -11 0 -14 -3 -6 -6z"/>
<path d="M6270 4565 c-23 -9 -28 -14 -15 -14 11 0 34 6 50 14 39 17 11 18 -35
0z"/>
<path d="M5748 4553 c6 -2 18 -2 25 0 6 3 1 5 -13 5 -14 0 -19 -2 -12 -5z"/>
<path d="M5827 4543 c18 -2 50 -2 70 0 21 2 7 4 -32 4 -38 0 -55 -2 -38 -4z"/>
<path d="M1353 4533 c-6 -5 9 -9 34 -10 25 -1 49 -7 53 -14 4 -6 14 -9 21 -7
10 3 8 8 -6 15 -29 16 -88 25 -102 16z"/>
<path d="M6165 4530 c-3 -6 1 -7 9 -4 18 7 21 14 7 14 -6 0 -13 -4 -16 -10z"/>
<path d="M5688 4513 c6 -2 18 -2 25 0 6 3 1 5 -13 5 -14 0 -19 -2 -12 -5z"/>
<path d="M5828 4493 c12 -2 30 -2 40 0 9 3 -1 5 -23 4 -22 0 -30 -2 -17 -4z"/>
<path d="M1488 4393 c6 -2 18 -2 25 0 6 3 1 5 -13 5 -14 0 -19 -2 -12 -5z"/>
<path d="M1488 4363 c7 -3 16 -2 19 1 4 3 -2 6 -13 5 -11 0 -14 -3 -6 -6z"/>
<path d="M5477 4336 c-7 -18 49 -46 175 -87 111 -36 189 -49 297 -49 82 0 84
1 150 45 36 24 77 54 91 65 l25 21 -25 -12 c-14 -7 -49 -30 -78 -52 -30 -21
-60 -40 -68 -41 -7 -1 -17 -5 -20 -9 -11 -10 -122 -8 -172 3 -23 6 -59 13 -80
16 -20 3 -41 10 -47 14 -9 7 -42 15 -104 25 -13 2 -28 8 -34 14 -6 6 -19 11
-29 11 -10 0 -18 5 -18 10 0 6 -5 10 -12 10 -6 0 -19 7 -28 15 -15 14 -18 14
-23 1z"/>
<path d="M2310 4300 c0 -5 5 -10 10 -10 6 0 10 5 10 10 0 6 -4 10 -10 10 -5 0
-10 -4 -10 -10z"/>
<path d="M6266 4291 c-3 -4 -20 -11 -37 -15 -18 -3 -30 -9 -26 -12 8 -8 77 16
77 27 0 11 -7 12 -14 0z"/>
<path d="M6170 4250 c-9 -6 -10 -10 -3 -10 6 0 15 5 18 10 8 12 4 12 -15 0z"/>
<path d="M1485 4240 c-3 -6 2 -13 12 -16 10 -3 28 -10 41 -15 32 -13 29 14 -3
29 -32 15 -42 15 -50 2z"/>
<path d="M1331 4214 c0 -11 3 -14 6 -6 3 7 2 16 -1 19 -3 4 -6 -2 -5 -13z"/>
<path d="M1410 4219 c0 -5 5 -7 10 -4 6 3 10 8 10 11 0 2 -4 4 -10 4 -5 0 -10
-5 -10 -11z"/>
<path d="M6108 4203 c7 -3 16 -2 19 1 4 3 -2 6 -13 5 -11 0 -14 -3 -6 -6z"/>
<path d="M1238 4193 c7 -3 16 -2 19 1 4 3 -2 6 -13 5 -11 0 -14 -3 -6 -6z"/>
<path d="M1388 3933 c7 -3 16 -2 19 1 4 3 -2 6 -13 5 -11 0 -14 -3 -6 -6z"/>
<path d="M1664 3888 l-19 -23 23 19 c21 18 27 26 19 26 -2 0 -12 -10 -23 -22z"/>
<path d="M1641 3844 c0 -11 3 -14 6 -6 3 7 2 16 -1 19 -3 4 -6 -2 -5 -13z"/>
<path d="M1401 3813 c0 -10 4 -36 8 -58 l9 -40 1 52 c0 28 -3 55 -9 58 -5 3
-10 -2 -9 -12z"/>
<path d="M1625 3800 c-4 -12 -5 -24 -2 -27 3 -2 8 5 12 17 4 12 5 24 2 27 -3
2 -8 -5 -12 -17z"/>
<path d="M1430 3635 c0 -5 5 -17 10 -25 5 -8 10 -10 10 -5 0 6 -5 17 -10 25
-5 8 -10 11 -10 5z"/>
<path d="M1447 3583 c-4 -3 -7 -11 -7 -17 0 -6 5 -5 12 2 6 6 9 14 7 17 -3 3
-9 2 -12 -2z"/>
</g>
</svg>
